<?xml version="1.0" encoding="UTF-8" standalone="no"?>
<!-- Created with Inkscape (http://www.inkscape.org/) -->

<svg
   width="83.586823mm"
   height="90.070625mm"
   viewBox="0 0 83.586823 90.070625"
   version="1.1"
   id="svg1"
   xmlns:inkscape="http://www.inkscape.org/namespaces/inkscape"
   xmlns:sodipodi="http://sodipodi.sourceforge.net/DTD/sodipodi-0.dtd"
   xmlns="http://www.w3.org/2000/svg"
   xmlns:svg="http://www.w3.org/2000/svg">
  <sodipodi:namedview
     id="namedview1"
     pagecolor="#ffffff"
     bordercolor="#cccccc"
     borderopacity="1"
     inkscape:showpageshadow="0"
     inkscape:pageopacity="1"
     inkscape:pagecheckerboard="0"
     inkscape:deskcolor="#d1d1d1"
     inkscape:document-units="mm" />
  <defs
     id="defs1">
    <clipPath
       clipPathUnits="userSpaceOnUse"
       id="clipPath86">
      <rect
         style="fill:#c8c4b7;fill-opacity:1;stroke-width:0.233274"
         id="rect87"
         width="573.59857"
         height="575.71912"
         x="46.594368"
         y="293.81546" />
    </clipPath>
    <clipPath
       clipPathUnits="userSpaceOnUse"
       id="clipPath69">
      <rect
         style="fill:#c8c4b7;fill-opacity:1;stroke-width:0.441"
         id="rect70"
         width="1084.3789"
         height="1088.3877"
         x="0"
         y="-4.0087943" />
    </clipPath>
  </defs>
  <g
     inkscape:label="Capa 1"
     inkscape:groupmode="layer"
     id="layer1"
     transform="translate(-71.892626,-78.510023)">
    <g
       id="g54"
       transform="matrix(0.50019053,0,0,0.50019053,-57.303252,-93.882274)"
       clip-path="url(#clipPath86)"
       style="fill:#000000"
       inkscape:export-filename="g54.svg"
       inkscape:export-xdpi="96"
       inkscape:export-ydpi="96">
      <path
         style="fill:#000000;fill-opacity:1;stroke-width:0.258029"
         d="m 383.54435,516.60595 c -1.4079,-0.64523 -2.05353,-1.56486 -3.04554,-4.33807 -1.19997,-3.35454 -1.25616,-4.33567 -1.20056,-20.96205 0.04,-11.97708 0.32918,-19.52619 0.92273,-24.0916 0.47541,-3.65686 0.83694,-7.32639 0.80338,-8.15454 -0.0679,-1.67604 1.07482,-8.96828 1.5268,-9.74321 0.15903,-0.27265 0.0598,-0.49573 -0.22049,-0.49573 -0.28029,0 -0.97717,1.55843 -1.54861,3.46317 -0.57144,1.90475 -1.75546,5.4959 -2.63113,7.98034 -0.87568,2.48445 -2.24545,7.09197 -3.04391,10.23893 -0.79848,3.14697 -1.82258,7.07692 -2.27577,8.73321 -0.45322,1.6563 -1.07302,4.77315 -1.37735,6.92634 -0.30434,2.15319 -0.94692,5.81209 -1.42796,8.13091 -0.48103,2.31882 -0.87906,5.90997 -0.88448,7.98034 l -0.01,3.76432 h -2.2517 c -2.12101,0 -2.28499,-0.13109 -2.82552,-2.25859 -0.3156,-1.24223 -0.7481,-5.71423 -0.96113,-9.93779 -0.21301,-4.22355 -0.54016,-7.67817 -0.72698,-7.67693 -0.18682,8.5e-4 -0.81303,1.22189 -1.39156,2.71255 -1.41368,3.64252 -5.58123,8.47812 -7.69244,8.92554 -1.25155,0.26523 -1.8214,0.85001 -2.28792,2.3479 -1.01772,3.26756 -5.37711,8.09116 -7.73636,8.56015 -2.95262,0.58694 -3.90751,0.0528 -6.19394,-3.46496 -1.72351,-2.65166 -2.24451,-4.26293 -3.25491,-10.06621 -1.63439,-9.38721 -1.49275,-9.12902 -3.12714,-5.70025 -2.22897,4.67618 -4.1263,6.9643 -6.82296,8.22829 -1.77915,0.83392 -2.70768,1.73644 -3.28016,3.18826 -0.43918,1.11379 -2.05281,3.40396 -3.58583,5.08929 -2.43812,2.6803 -3.07193,3.06419 -5.05908,3.06419 -1.74691,0 -2.6076,-0.38265 -3.7255,-1.65629 -2.56757,-2.92527 -3.31143,-4.68392 -4.67921,-11.06272 -0.96034,-4.47868 -1.4304,-5.82584 -1.65652,-4.7474 -0.17363,0.82815 -0.8635,4.08052 -1.53306,7.22749 -0.66955,3.14697 -1.32356,6.31063 -1.45336,7.03037 -0.1298,0.71974 -1.03687,2.15724 -2.01571,3.19443 -2.28345,2.4196 -4.24273,2.27377 -5.96523,-0.44396 -2.44222,-3.85329 -2.49384,-21.30917 -0.12558,-42.47643 0.65916,-5.89161 1.05404,-10.86505 0.87751,-11.05211 -1.72528,-1.82814 -6.13163,10.67806 -7.98653,22.66754 -3.3202,21.46066 -3.9202,23.93319 -5.6616,23.3309 -1.48413,-0.5133 -2.03182,-4.51476 -2.08048,-15.19998 -0.0691,-15.17182 -1.07533,-12.5591 -4.20563,10.91992 l -1.83639,13.77397 -1.49536,0.18667 c -1.04146,0.13001 -1.68392,-0.18666 -2.11655,-1.04324 -1.00425,-1.98833 -1.24374,-11.24884 -0.76058,-29.40907 0.24899,-9.3584 0.27829,-17.01501 0.0651,-17.0147 -0.5671,8.4e-4 -2.36403,2.89579 -3.8323,6.17405 -0.86939,1.94113 -1.63049,2.86088 -2.36742,2.86088 -0.64738,0 -1.0861,-0.41762 -1.0861,-1.03388 0,-1.93151 1.90152,-6.48324 4.15474,-9.94535 1.77673,-2.72995 2.64626,-3.53021 4.16361,-3.83183 4.0336,-0.80183 5.86208,2.382 5.91184,10.29388 l 0.0265,4.21603 1.45485,-3.61374 c 0.80017,-1.98755 1.85243,-4.08804 2.33836,-4.66775 1.3402,-1.59885 3.82738,-1.3384 5.11575,0.5357 l 1.09286,1.58971 0.99285,-3.246 c 1.65085,-5.39724 4.21282,-10.57178 5.76922,-11.65238 0.80853,-0.56135 2.30482,-1.16419 3.32509,-1.33962 1.54858,-0.26629 2.0695,-0.0349 3.15329,1.40091 1.29417,1.71447 1.29712,1.76444 0.93771,15.87371 -0.1983,7.78459 -0.60645,16.05102 -0.907,18.36984 -0.7703,5.94308 -0.75823,19.39804 0.0167,18.57694 0.33018,-0.34986 1.33275,-4.40177 2.22793,-9.00423 0.89518,-4.60247 2.17947,-10.80741 2.85396,-13.78874 0.67449,-2.98134 1.55659,-7.9954 1.9602,-11.14237 1.09621,-8.54723 3.13579,-15.87416 5.78921,-20.79707 1.89788,-3.52117 7.10705,-8.15144 8.34481,-7.41745 1.2059,0.71509 1.21699,1.61869 0.0368,3.00052 -0.86116,1.00831 -0.82321,1.12853 0.56839,1.8004 0.97109,0.46883 1.49119,1.19624 1.49119,2.08552 0,0.75107 0.64684,3.89218 1.43741,6.98024 1.7628,6.88559 2.47981,16.52362 2.10338,28.27312 -0.25138,7.84571 -0.17969,8.81282 0.67911,9.16202 1.13111,0.45993 3.34716,-1.83399 4.84823,-5.0186 1.90045,-4.03191 4.53611,-14.19622 5.45133,-21.02292 0.84699,-6.31765 2.79171,-13.21565 5.04337,-17.88893 0.91434,-1.89772 6.69159,-8.06677 7.55443,-8.06677 0.25876,0 1.39586,0.6663 2.52688,1.48068 1.48802,1.07143 2.13009,2.02862 2.32299,3.46317 0.14663,1.09037 0.97181,5.23485 1.83373,9.20997 1.49554,6.89732 1.56477,7.90843 1.51537,22.13415 -0.0527,15.16634 0.12287,16.37837 2.00625,13.85268 1.58135,-2.12065 3.04437,-5.59385 4.67147,-11.09004 1.35689,-4.58341 1.72813,-7.12736 2.00714,-13.75443 0.18829,-4.472 0.50482,-10.43213 0.7034,-13.24474 0.33786,-4.78529 0.29841,-5.05873 -0.61404,-4.25632 -0.5363,0.47163 -1.47315,1.892 -2.0819,3.15639 -0.71956,1.49453 -1.50051,2.29888 -2.23206,2.29888 -1.64333,0 -1.41228,-1.70448 0.69839,-5.15213 2.67983,-4.37735 3.32251,-5.75175 2.97121,-6.35407 -0.1731,-0.29679 -0.0589,-0.5396 0.25367,-0.5396 0.31262,0 0.72906,0.27545 0.92541,0.61211 0.19637,0.33666 0.60638,0.44881 0.91115,0.24923 0.30477,-0.19959 1.13414,0.0399 1.84306,0.53201 2.35319,1.6338 2.77476,4.92939 2.6912,21.03822 -0.0425,8.20073 0.0465,14.91041 0.19796,14.91041 0.15141,0 0.5472,-1.15188 0.87952,-2.55974 1.60507,-6.79961 4.74117,-18.53852 5.6719,-21.23072 0.57259,-1.6563 1.74651,-5.12835 2.60868,-7.71566 4.25628,-12.77272 11.89163,-14.56518 10.74839,-2.52327 -0.15724,1.65629 -0.39332,5.31521 -0.5246,8.13091 -0.13129,2.81571 -0.66206,7.42323 -1.17949,10.23894 -1.09809,5.97557 -1.96178,45.95286 -0.9694,44.8706 1.26877,-1.38368 4.96932,-16.8598 5.84725,-24.4539 0.32162,-2.78206 0.69534,-5.46485 0.83048,-5.96175 0.13514,-0.49688 0.63971,-6.32404 1.12128,-12.94923 0.48157,-6.62519 1.05402,-13.53647 1.27215,-15.35839 0.21812,-1.82193 0.40715,-14.15382 0.42008,-27.4042 0.0201,-20.61834 -0.12656,-25.04675 -1.01736,-30.71679 -1.35107,-8.59982 -1.21744,-8.23566 -2.77668,-7.56666 -0.71394,0.30632 -1.94994,0.70269 -2.74669,0.88081 l -1.44863,0.32386 0.1209,10.10733 0.12091,10.10732 -1.93105,-2.34724 c -3.14242,-3.81973 -4.48435,-8.18148 -4.49703,-14.61699 -0.009,-4.61656 0.17961,-5.80025 1.15227,-7.22748 1.23669,-1.81465 1.23502,-3.81477 -0.003,-3.81477 -1.28888,0 -4.75823,4.27323 -9.05491,11.15302 -2.27938,3.64972 -4.46163,7.26409 -4.84944,8.03193 -0.92651,1.83442 -1.44414,1.1888 -1.2742,-1.58925 0.18935,-3.09514 1.01531,-6.2835 2.998,-11.5728 2.36264,-6.30292 4.04495,-8.61901 8.53954,-11.7566 2.14613,-1.49818 3.9014,-2.92147 3.9006,-3.16288 -8e-4,-0.2414 -3.00622,-0.46297 -6.67871,-0.49237 -7.36158,-0.059 -14.35065,-1.18189 -14.35065,-2.30576 0,-1.71252 6.04495,-6.46983 10.34856,-8.14418 5.10782,-1.98723 6.97633,-2.12839 9.52687,-0.71972 2.59799,1.43489 4.98825,1.09243 3.81133,-0.54605 -1.13414,-1.57892 -4.48512,-4.01982 -8.19785,-5.97141 -1.95387,-1.02706 -3.5525,-2.14333 -3.5525,-2.48062 0,-0.33727 1.34285,-1.27569 2.9841,-2.08537 4.14359,-2.04413 7.20213,-1.94415 11.00217,0.35963 2.55328,1.54794 3.15232,2.24807 3.73612,4.3666 0.38241,1.3877 0.9081,2.68018 1.16819,2.87218 0.26011,0.192 0.68281,1.756 0.93935,3.47556 0.58382,3.91348 1.02769,4.41019 1.81164,2.02727 0.58942,-1.79164 5.12455,-6.40343 7.73579,-7.86658 3.10451,-1.73953 9.17572,-0.0458 12.32629,3.43876 l 1.51594,1.67664 -4.50383,0.73057 c -5.1888,0.84167 -10.72251,2.98049 -13.48232,5.211 -3.17056,2.5625 -4.0549,5.50957 -1.21766,4.05786 4.01286,-2.05324 8.20397,-2.55082 8.75147,-1.03901 0.25499,0.70413 0.51473,0.75877 1.11158,0.23389 2.18682,-1.9231 8.81011,2.86063 12.58026,9.08624 1.10333,1.82193 2.16981,3.44811 2.36994,3.61374 0.99313,0.82192 2.32702,3.74434 2.32702,5.09828 0,0.8398 -0.0643,1.52691 -0.14269,1.52691 -0.0784,0 -5.00225,-2.31168 -10.94171,-5.13706 -6.35543,-3.02325 -11.38374,-5.06786 -12.22002,-4.96889 l -1.42101,0.16816 0.0144,8.13092 c 0.008,4.472 0.12739,17.61699 0.26548,29.21107 0.16953,14.23292 0.019,23.72122 -0.46332,29.21107 -0.39291,4.472 -0.80087,10.29916 -0.90657,12.94923 -0.44198,11.08123 -4.32894,44.72778 -5.80982,50.29121 -1.82871,6.87022 -4.54207,11.4168 -7.31018,12.2492 -0.62525,0.18802 -1.94081,-0.0266 -2.92346,-0.47697 z m -67.17363,-15.23539 1.88902,-3.46317 0.18512,-13.85267 c 0.10182,-7.61897 -0.087,-16.29195 -0.41953,-19.27328 -0.67769,-6.07538 -2.87546,-14.81936 -3.74439,-14.89732 -1.01149,-0.0908 -2.66087,4.30183 -3.172,8.44754 -2.58782,20.98949 -2.95228,30.96675 -1.40957,38.58696 0.91751,4.53204 2.63153,7.9151 4.01015,7.9151 0.42471,0 1.62224,-1.55842 2.6612,-3.46316 z m 31.42288,-3.06291 c 0.47921,-1.49026 1.28504,-3.194 1.79071,-3.78609 0.81647,-0.95597 0.88554,-2.95115 0.6168,-17.81748 -0.29586,-16.36644 -0.52161,-18.79522 -2.46812,-26.55378 -1.14377,-4.55898 -2.16528,-4.74528 -3.98775,-0.72726 -2.66328,5.87182 -5.17178,27.66132 -4.57397,39.73081 0.34542,6.97399 1.44062,11.60601 3.35331,14.1826 l 1.24701,1.67984 1.57536,-1.99954 c 0.86644,-1.09974 1.96745,-3.21883 2.44665,-4.7091 z"
         id="path2" />
      <path
         style="fill:#000000;fill-opacity:1;stroke-width:0.0456135"
         d="m 336.7507,524.59599 c -0.22106,-0.0799 -0.52767,-0.17472 -0.68136,-0.21069 -0.16371,-0.0383 -0.364,-0.20754 -0.48363,-0.40858 -0.17129,-0.28788 -0.19363,-0.44611 -0.13864,-0.982 0.0792,-0.77236 0.0785,-0.71741 0.0176,-1.42452 -0.0453,-0.52592 -0.0214,-0.61149 0.29177,-1.04625 0.18759,-0.26042 0.34108,-0.5361 0.34108,-0.61263 0,-0.0765 0.10915,-0.16125 0.24256,-0.18827 0.17895,-0.0362 0.27526,0.0156 0.36723,0.19771 0.27903,0.55244 1.19694,0.56602 1.62589,0.024 0.36981,-0.46725 0.36644,-0.93154 -0.01,-1.36819 -0.26224,-0.30423 -0.33154,-0.32935 -0.82567,-0.29937 -0.57834,0.0351 -0.71223,0.17177 -0.84643,0.86394 -0.0485,0.24978 -0.0945,0.28715 -0.28067,0.22759 -0.35283,-0.11286 -0.42036,-0.23045 -0.28543,-0.49692 0.0675,-0.13335 0.19536,-0.38619 0.28408,-0.56186 0.0887,-0.17568 0.20895,-0.35235 0.26717,-0.3926 0.0582,-0.0403 0.51469,-0.0431 1.0144,-0.006 1.3115,0.0965 1.70224,0.075 2.15958,-0.1189 0.2238,-0.0949 0.40691,-0.12822 0.40691,-0.0741 0,0.0541 0.093,0.12971 0.20669,0.16794 0.16125,0.0542 0.1999,0.14358 0.17584,0.40644 -0.0275,0.30082 -0.0631,0.33505 -0.33229,0.31937 -0.1658,-0.01 -0.41676,-0.0494 -0.5577,-0.0882 -0.21953,-0.0605 -0.27961,-0.0199 -0.41931,0.28374 -0.0897,0.19491 -0.21511,0.63049 -0.27876,0.96796 -0.15539,0.82406 -0.39438,0.95808 -1.74701,0.9797 -0.90619,0.0145 -1.0096,0.0374 -1.18064,0.26118 -0.22509,0.29455 -0.24273,0.60234 -0.0393,0.68507 0.0815,0.0331 0.86793,0.0615 1.74761,0.0629 1.71072,0.003 1.92052,0.0447 2.34948,0.46831 0.29829,0.29459 0.34456,0.55296 0.25666,1.43301 -0.0224,0.22417 -0.58102,0.59037 -1.26553,0.82959 -0.75113,0.2625 -1.81102,0.30737 -2.38232,0.10085 z m 2.31543,-0.75183 c 0.44318,-0.29201 0.53713,-0.45169 0.45609,-0.77527 -0.10836,-0.43262 -0.65015,-0.60205 -1.87372,-0.58593 -1.26011,0.0166 -1.75263,0.19651 -1.75035,0.63942 0.002,0.43642 0.0862,0.52137 0.74902,0.75847 0.76792,0.27468 1.97416,0.25638 2.41896,-0.0367 z"
         id="path4" />
      <path
         style="fill:#000000;fill-opacity:1;stroke-width:0.0456135"
         d="m 328.9635,522.75655 c -0.37902,-0.0746 -0.42181,-0.26054 -0.13339,-0.57953 0.25283,-0.27963 0.26004,-0.32671 0.26357,-1.71922 0.004,-1.42855 0.003,-1.43254 -0.28937,-1.80121 -0.16114,-0.20323 -0.42862,-0.41009 -0.59441,-0.4597 l -0.30144,-0.0902 0.34901,-0.0399 c 0.19196,-0.022 0.53802,-0.01 0.76901,0.0268 0.54122,0.086 0.56018,0.16874 0.52933,2.31123 -0.0215,1.49487 -0.004,1.70429 0.15777,1.89379 0.14898,0.17443 0.15901,0.24238 0.0554,0.37476 -0.12518,0.15984 -0.31624,0.17958 -0.80541,0.0832 z"
         id="path5" />
      <path
         style="fill:#000000;fill-opacity:1;stroke-width:0.0228068"
         d="m 348.77856,522.97209 c -0.0124,-0.0131 -0.13506,-0.0376 -0.27269,-0.0545 -0.2278,-0.028 -0.4238,-0.0583 -0.62736,-0.0972 -0.0416,-0.008 -0.13144,-0.0558 -0.19958,-0.10639 -0.0681,-0.0506 -0.16056,-0.0919 -0.20539,-0.0919 -0.0448,0 -0.12115,-0.0464 -0.16959,-0.10313 -0.0848,-0.0993 -0.0809,-0.1113 0.10524,-0.32379 0.26488,-0.30229 0.47475,-0.73167 0.44093,-0.90207 -0.0148,-0.0743 -0.0325,-0.16424 -0.0395,-0.19999 -0.007,-0.0358 -0.0284,-0.0817 -0.0476,-0.10203 -0.0504,-0.0535 -0.0431,-0.97753 0.008,-0.97753 0.05,0 -0.11387,-0.96468 -0.20359,-1.19779 -0.0888,-0.23074 -0.19324,-0.33289 -0.43138,-0.42192 -0.25762,-0.0963 -0.41368,-0.0493 -0.81444,0.24527 -0.15197,0.11172 -0.29459,0.20315 -0.31691,0.2032 -0.0362,6e-5 -0.22317,0.17728 -0.64883,0.61493 -0.0752,0.0773 -0.15119,0.22198 -0.16879,0.32139 -0.0176,0.0994 -0.0523,0.16745 -0.0772,0.15118 -0.0532,-0.0349 -0.14152,0.18914 -0.10964,0.27799 0.012,0.0337 -0.002,0.0772 -0.0326,0.0968 -0.03,0.0196 -0.0383,0.0633 -0.0187,0.0971 0.0197,0.0337 0.0405,0.24174 0.0462,0.46213 0.0123,0.47483 0.0225,0.52831 0.13498,0.71026 0.0473,0.0766 0.0861,0.1663 0.0861,0.19941 0,0.11572 0.19962,0.35593 0.35101,0.42237 0.20185,0.0886 0.24547,0.27324 0.10078,0.42656 -0.0872,0.0924 -0.19835,0.12476 -0.54443,0.15858 -0.23918,0.0234 -0.45647,0.0286 -0.48285,0.0117 -0.0264,-0.0169 -0.1055,-0.0349 -0.17584,-0.04 -0.19209,-0.0139 -0.40419,-0.0834 -0.40419,-0.13233 0,-0.0238 -0.0792,-0.0711 -0.17584,-0.10483 -0.0967,-0.0338 -0.17584,-0.0805 -0.17584,-0.10364 0,-0.0232 0.12999,-0.10215 0.28887,-0.17549 0.23719,-0.10948 0.55291,-0.35969 0.45388,-0.35969 -0.0145,0 -0.007,-0.10778 0.0158,-0.23951 0.0347,-0.19713 0.0732,-2.60037 0.0431,-2.68844 -0.005,-0.0146 -0.0147,-0.10481 -0.0214,-0.20039 -0.0162,-0.22905 -0.14676,-0.37325 -0.39881,-0.44048 -0.36654,-0.0978 -0.44992,-0.15001 -0.38064,-0.23846 0.14792,-0.18886 0.86678,-0.25692 1.08936,-0.10315 0.0607,0.042 0.14611,0.15599 0.18973,0.2534 0.0714,0.15935 0.0981,0.1756 0.26638,0.1621 0.31479,-0.0252 0.4328,-0.0732 0.57033,-0.23158 0.0727,-0.0836 0.23089,-0.18179 0.35168,-0.21808 0.29457,-0.0885 0.32764,-0.0952 0.64383,-0.1305 0.15042,-0.0167 0.29095,-0.0419 0.31228,-0.0559 0.0434,-0.0285 0.56126,0.11444 0.7275,0.20072 0.0591,0.0307 0.13718,0.11904 0.17344,0.19634 0.0362,0.0773 0.12129,0.20551 0.18895,0.28491 0.0676,0.0794 0.12957,0.22314 0.13761,0.31942 0.0315,0.37761 0.068,0.88757 0.0945,1.3196 0.0453,0.73955 0.0788,0.91937 0.2179,1.17117 0.0727,0.13176 0.1273,0.25753 0.12117,0.27949 -0.006,0.0219 0.009,0.0399 0.0336,0.0399 0.0246,0 0.0593,0.0611 0.077,0.13579 0.0177,0.0747 0.1558,0.26023 0.30689,0.41232 0.2825,0.28435 0.33038,0.39084 0.19965,0.44399 -0.0413,0.0167 -0.0626,0.0519 -0.0472,0.0782 0.0153,0.0262 0.002,0.0477 -0.0284,0.0477 -0.0309,0 -0.0422,0.024 -0.0251,0.0532 0.0171,0.0292 0.009,0.0532 -0.0188,0.0532 -0.0274,0 -0.0624,0.0419 -0.0778,0.0932 -0.0191,0.0637 -0.089,0.0976 -0.22054,0.10707 -0.1059,0.008 -0.20265,0.003 -0.21501,-0.01 z m 0.37579,-0.55333 c 0.014,-0.024 -0.0412,-0.0332 -0.12263,-0.0206 -0.0814,0.0127 -0.14807,0.0323 -0.14807,0.0436 0,0.0405 0.24581,0.0196 0.2707,-0.023 z m -3.57398,-0.0449 c -0.0346,-0.0148 -0.0911,-0.0148 -0.1256,0 -0.0346,0.0148 -0.006,0.0269 0.0628,0.0269 0.0691,0 0.0973,-0.0121 0.0628,-0.0269 z m 3.10232,-0.2043 V 521.93 h -0.19459 -0.19459 l -0.006,-0.93996 c -0.003,-0.51698 -0.0174,-0.95218 -0.0315,-0.96711 -0.0236,-0.025 -0.0328,0.38978 -0.0328,1.48118 0,0.23424 0.002,0.53369 0.003,0.66545 l 0.003,0.23956 h 0.22608 0.22608 z"
         id="path6" />
      <path
         style="fill:#000000;fill-opacity:1;stroke-width:0.0228068"
         d="m 349.86109,512.97508 c -0.0683,-0.057 -0.11236,-0.12411 -0.0977,-0.14915 0.0146,-0.0251 -0.0187,-0.13094 -0.074,-0.23531 -0.0553,-0.10436 -0.077,-0.18975 -0.0482,-0.18975 0.0288,0 0.0412,-0.0192 0.0275,-0.0426 -0.0137,-0.0235 0.0769,-0.0744 0.20135,-0.1134 0.17361,-0.0543 0.25551,-0.0566 0.35222,-0.01 0.0693,0.0335 0.14593,0.0478 0.17028,0.0319 0.0747,-0.0489 0.19227,0.20415 0.17695,0.38065 -0.0188,0.21702 -0.0594,0.28065 -0.22107,0.34735 -0.22646,0.0934 -0.3579,0.0881 -0.4872,-0.0196 z m 0.2032,-0.25479 c -0.0171,-0.0292 -0.0128,-0.0532 0.01,-0.0532 0.0224,0 0.0407,-0.0569 0.0407,-0.12631 0,-0.0694 -0.0233,-0.11683 -0.0518,-0.10523 -0.0286,0.0116 -0.0473,0.0864 -0.0418,0.16624 0.0121,0.17492 0.0113,0.17177 0.0464,0.17177 0.0155,0 0.0141,-0.024 -0.003,-0.0532 z"
         id="path7" />
      <path
         style="fill:#000000;fill-opacity:1;stroke-width:0.0228068"
         d="m 348.30589,522.86224 c -0.38226,-0.0654 -0.93633,-0.2825 -1.0002,-0.39198 -0.0164,-0.0281 0.0512,-0.15365 0.15008,-0.27909 0.0989,-0.12544 0.23786,-0.3493 0.3088,-0.49748 0.12056,-0.25184 0.1252,-0.28882 0.0711,-0.56699 -0.0318,-0.16368 -0.0564,-0.55895 -0.0545,-0.87839 0.003,-0.59852 -0.0921,-1.23232 -0.2275,-1.50979 -0.17716,-0.36303 -0.54234,-0.4978 -0.8976,-0.33129 -0.58599,0.27467 -1.49008,1.08802 -1.49008,1.34051 0,0.0554 -0.0354,0.1218 -0.0787,0.14746 -0.12417,0.0736 -0.16507,0.39434 -0.12198,0.95648 0.0496,0.6465 0.19625,1.01167 0.53115,1.32223 0.18329,0.16997 0.22715,0.24116 0.20145,0.32699 -0.0524,0.17474 -0.30908,0.25242 -0.83337,0.2522 -0.43258,-2e-4 -0.50694,-0.0157 -0.794,-0.1659 l -0.31671,-0.16568 0.3216,-0.19059 c 0.17689,-0.1048 0.34352,-0.22139 0.3703,-0.25905 0.0537,-0.0755 0.094,-1.20789 0.089,-2.49826 -0.004,-0.99178 -0.03,-1.06299 -0.43667,-1.18964 -0.3988,-0.1242 -0.43227,-0.16051 -0.24343,-0.26398 0.17033,-0.0933 0.65698,-0.12849 0.8485,-0.0613 0.0632,0.0222 0.17271,0.13732 0.24333,0.25587 l 0.12841,0.21554 0.257,-0.0322 c 0.17921,-0.0225 0.33649,-0.0903 0.51967,-0.22395 0.44649,-0.32584 1.17397,-0.46133 1.67587,-0.31211 0.24823,0.0738 0.33826,0.13277 0.47277,0.3096 0.31944,0.41999 0.31991,0.42177 0.40538,1.558 0.0444,0.59035 0.10114,1.14875 0.12608,1.2409 0.0835,0.30847 0.41245,0.87711 0.67068,1.15933 l 0.25571,0.27948 -0.0936,0.17302 c -0.21533,0.39799 -0.2756,0.41393 -1.05846,0.2801 z m 0.87921,-0.45311 c 0,-0.0676 -0.15246,-0.0676 -0.25121,0 -0.0572,0.0392 -0.036,0.0518 0.0879,0.0524 0.0898,4.5e-4 0.16329,-0.0231 0.16329,-0.0524 z m -3.60473,-0.0353 c -0.0346,-0.0148 -0.0911,-0.0148 -0.1256,0 -0.0346,0.0148 -0.006,0.0269 0.0628,0.0269 0.0691,0 0.0973,-0.0121 0.0628,-0.0269 z m 3.10232,-0.2043 c 0,-0.23829 -8e-4,-0.23956 -0.17584,-0.23956 h -0.17584 l -2.9e-4,-0.51905 c -1.7e-4,-0.28547 -0.0165,-0.72267 -0.0364,-0.97154 l -0.0361,-0.4525 -0.0339,0.29279 c -0.0187,0.16104 -0.0362,0.70604 -0.0389,1.21111 l -0.005,0.91831 h 0.2512 0.25119 z"
         id="path8" />
      <path
         style="fill:#000000;fill-opacity:1;stroke-width:0.0228068"
         d="m 348.30589,522.86224 c -0.37858,-0.0648 -0.93618,-0.28223 -0.99881,-0.3896 -0.0156,-0.0268 0.0675,-0.17944 0.18465,-0.33932 0.11716,-0.15986 0.25641,-0.39264 0.30945,-0.51728 0.0839,-0.19719 0.0887,-0.25728 0.0368,-0.46282 -0.0328,-0.12991 -0.0596,-0.52177 -0.0596,-0.87079 0,-0.64281 -0.0897,-1.26714 -0.22066,-1.53543 -0.15568,-0.31899 -0.51128,-0.48797 -0.80829,-0.3841 -0.44829,0.15677 -1.4153,0.96963 -1.53512,1.2904 -0.0357,0.0957 -0.0958,0.21253 -0.13357,0.25974 -0.12841,0.16064 -0.15811,0.40727 -0.11392,0.94629 0.0526,0.64173 0.19521,0.99218 0.53492,1.31458 0.17815,0.16906 0.22165,0.24161 0.19608,0.32699 -0.0524,0.17474 -0.30907,0.25242 -0.83336,0.2522 -0.43196,-2e-4 -0.50717,-0.0158 -0.79206,-0.16489 -0.33788,-0.17677 -0.33794,-0.18212 -0.003,-0.3643 0.42843,-0.23338 0.40018,-0.1435 0.4537,-1.44351 0.0511,-1.24144 0.0284,-2.00378 -0.0662,-2.2238 -0.0553,-0.12874 -0.3094,-0.29771 -0.45363,-0.30172 -0.0373,-8.5e-4 -0.12271,-0.0342 -0.18985,-0.0735 l -0.12206,-0.0716 0.16197,-0.0888 c 0.17176,-0.0941 0.65792,-0.1297 0.85021,-0.0622 0.0632,0.0222 0.17271,0.13732 0.24334,0.25587 l 0.12841,0.21555 0.25699,-0.0322 c 0.17922,-0.0225 0.3365,-0.0903 0.51968,-0.22395 0.44649,-0.32585 1.17397,-0.46134 1.67587,-0.31211 0.24823,0.0738 0.33826,0.13276 0.47277,0.3096 0.31958,0.42016 0.31987,0.42129 0.40583,1.56408 0.0447,0.59371 0.11395,1.17781 0.15398,1.29801 0.11895,0.35725 0.37763,0.79801 0.64475,1.09859 l 0.25056,0.28193 -0.0923,0.17056 c -0.21372,0.39519 -0.27518,0.41134 -1.0571,0.27766 z m 0.87921,-0.45311 c 0,-0.0676 -0.15246,-0.0676 -0.25121,0 -0.0572,0.0392 -0.036,0.0518 0.0879,0.0524 0.0898,4.5e-4 0.16329,-0.0231 0.16329,-0.0524 z m -3.60473,-0.0353 c -0.0346,-0.0148 -0.0911,-0.0148 -0.1256,0 -0.0346,0.0148 -0.006,0.0269 0.0628,0.0269 0.0691,0 0.0973,-0.0121 0.0628,-0.0269 z m 3.10232,-0.2043 c 0,-0.23829 -8e-4,-0.23956 -0.17584,-0.23956 h -0.17584 v -0.47093 c 0,-0.25903 -0.0165,-0.69622 -0.0367,-0.97156 l -0.0367,-0.5006 -0.0332,0.31941 c -0.0182,0.17568 -0.0356,0.72067 -0.0387,1.21111 l -0.006,0.89169 h 0.2512 0.2512 z"
         id="path9" />
      <path
         style="fill:#000000;fill-opacity:1;stroke-width:0.0228068"
         d="m 348.2415,521.4642 c 0.0103,-0.8831 0.012,-0.89877 0.0266,-0.23956 0.0152,0.68803 0.0184,0.70539 0.12719,0.70619 0.14957,8.5e-4 0.21497,0.0543 0.25071,0.20395 0.0489,0.20481 -0.006,0.27435 -0.21987,0.27435 h -0.19558 z"
         id="path10" />
      <path
         style="fill:#000000;fill-opacity:1;stroke-width:0.0228068"
         d="m 341.00854,513.04164 c -0.12432,-0.16701 -0.14484,-0.26813 -0.0545,-0.26813 0.0322,0 0.0446,-0.0148 0.0275,-0.033 -0.0171,-0.0181 0.004,-0.07 0.0464,-0.1151 0.0699,-0.074 0.0915,-0.0734 0.21888,0.006 0.0777,0.0487 0.17581,0.0885 0.21793,0.0885 0.0421,0 0.11318,0.0387 0.15791,0.0862 0.0735,0.0779 0.0738,0.095 0.003,0.1772 -0.0428,0.0501 -0.0777,0.11909 -0.0777,0.15338 0,0.0383 -0.0823,0.0612 -0.21352,0.0594 -0.17309,-0.003 -0.23492,-0.0317 -0.32656,-0.15482 z"
         id="path11" />
      <path
         style="fill:#000000;fill-opacity:1;stroke-width:0.0228068"
         d="m 340.75549,513.26595 c -0.15787,-0.16836 -0.29229,-0.3348 -0.29872,-0.36985 -0.006,-0.035 0.0641,-0.14885 0.15666,-0.25287 0.0926,-0.10402 0.16001,-0.18912 0.14984,-0.18912 -0.0102,0 0.0267,-0.0479 0.082,-0.10647 0.0553,-0.0586 0.12442,-0.10648 0.15368,-0.10648 0.0293,0 0.0392,-0.024 0.0221,-0.0532 -0.0171,-0.0292 -0.007,-0.0532 0.0221,-0.0532 0.0293,0 0.0532,0.025 0.0532,0.0556 0,0.0306 0.0282,0.0517 0.0628,0.0469 0.11575,-0.0159 0.16886,0.003 0.26684,0.0971 0.0536,0.0513 0.18275,0.15305 0.28708,0.22624 0.23794,0.16696 0.28175,0.32902 0.15678,0.58018 -0.16208,0.3258 -0.30437,0.4313 -0.58173,0.4313 -0.23235,0 -0.26131,-0.0167 -0.53274,-0.30611 z m 0.86652,-0.20394 c 0.11505,-0.18606 0.0711,-0.27229 -0.2021,-0.39637 -0.30497,-0.13852 -0.39598,-0.13256 -0.46611,0.0305 -0.0809,0.18826 -0.0742,0.23892 0.0509,0.38001 0.16128,0.18191 0.50086,0.1741 0.61728,-0.0142 z"
         id="path12" />
      <path
         style="fill:#000000;fill-opacity:1;stroke-width:0.0228068"
         d="m 350.04314,512.52953 c 0.002,-0.062 0.0143,-0.0746 0.0303,-0.0321 0.0145,0.0384 0.0127,0.0843 -0.004,0.10204 -0.0167,0.0177 -0.0286,-0.0138 -0.0264,-0.0699 z"
         id="path24" />
      <path
         style="fill:#000000;fill-opacity:1;stroke-width:0.0228068"
         d="m 332.52935,513.13588 c -0.0822,-0.0241 -0.20938,-0.0515 -0.28252,-0.0608 -0.18858,-0.0239 -0.28862,-0.14801 -0.25766,-0.31962 0.0142,-0.0788 0.0448,-0.15566 0.0679,-0.17081 0.0231,-0.0151 0.0302,-0.0602 0.0157,-0.10029 -0.0392,-0.10824 0.0516,-0.14437 0.36295,-0.14437 0.18399,0 0.30985,0.0286 0.36719,0.0836 0.048,0.046 0.10577,0.0836 0.12844,0.0836 0.0227,0 0.11836,0.0841 0.21266,0.18706 l 0.17145,0.18706 -0.10719,0.14441 c -0.0847,0.11404 -0.15157,0.1454 -0.31828,0.14915 -0.1161,0.003 -0.27837,-0.0151 -0.36062,-0.0392 z"
         id="path31" />
      <path
         style="fill:#000000;fill-opacity:1;stroke-width:0.0228068"
         d="m 328.91608,516.82425 c -0.0142,-0.0244 -0.0998,-0.0616 -0.19018,-0.0828 -0.0904,-0.0212 -0.13468,-0.0507 -0.0985,-0.0656 0.0533,-0.022 0.0523,-0.0439 -0.006,-0.11481 -0.10858,-0.13337 -0.13149,-0.30441 -0.0667,-0.49808 0.1506,-0.4504 0.30979,-0.52621 0.79846,-0.38025 0.0488,0.0146 0.13406,0.12061 0.18941,0.2356 0.0553,0.11498 0.12281,0.20906 0.14988,0.20906 0.0799,0 0.0562,0.14549 -0.0294,0.18026 -0.0432,0.0176 -0.0668,0.052 -0.0525,0.0767 0.0144,0.0246 -0.0278,0.12869 -0.0936,0.23133 -0.0852,0.13291 -0.15326,0.18365 -0.23641,0.17631 -0.0643,-0.006 -0.16681,0.009 -0.22801,0.0332 -0.0612,0.0239 -0.1229,0.0236 -0.13712,-8.5e-4 z"
         id="path32" />
      <path
         style="fill:#000000;fill-opacity:1;stroke-width:0.0228068"
         d="m 331.09913,523.3687 c -0.14966,-0.15687 -0.35041,-0.26778 -0.53873,-0.29762 -0.1046,-0.0166 -0.27826,-0.0544 -0.38591,-0.084 -0.18828,-0.0519 -0.58694,-0.0764 -1.66315,-0.1027 -0.3578,-0.009 -0.52737,-0.0349 -0.58914,-0.0912 -0.0477,-0.0434 -0.0731,-0.10221 -0.0565,-0.13072 0.0182,-0.0312 -0.0122,-0.0376 -0.0765,-0.0159 -0.062,0.0208 -0.10677,0.0127 -0.10677,-0.0192 0,-0.0303 -0.0294,-0.0433 -0.0651,-0.0286 -0.044,0.0179 -0.0644,-0.0214 -0.0628,-0.12145 l 0.002,-0.14794 0.50241,-0.002 c 0.27631,-8.5e-4 0.5285,-0.019 0.56041,-0.04 0.0415,-0.0273 0.0508,0.0193 0.0325,0.16371 -0.0226,0.17896 -0.0105,0.20917 0.10726,0.26602 0.0731,0.0353 0.28931,0.0795 0.48058,0.0984 0.42276,0.0417 0.58731,-0.0414 0.6121,-0.30892 l 0.0158,-0.17062 0.42704,-0.009 c 0.23487,-0.004 0.51877,-0.0358 0.6309,-0.0693 0.38223,-0.11406 0.92654,-0.0403 0.92654,0.12563 0,0.0349 0.0792,0.15231 0.17584,0.26097 0.0967,0.10866 0.17584,0.21927 0.17584,0.24578 0,0.0265 -0.0615,0.0907 -0.13672,0.14261 -0.0752,0.0519 -0.19389,0.15743 -0.26377,0.23449 -0.157,0.17315 -0.57788,0.23338 -0.70436,0.10079 z"
         id="path33" />
      <path
         style="fill:#000000;fill-opacity:1;stroke-width:0.0228068"
         d="m 320.11869,520.27531 c -0.0104,-0.0178 -0.082,-0.0359 -0.15892,-0.04 -0.077,-0.004 -0.18516,-0.0179 -0.24043,-0.0307 -0.0553,-0.0127 -0.12923,-0.025 -0.16439,-0.0273 -0.12889,-0.009 -0.60933,-0.58715 -0.64244,-0.77415 -0.0656,-0.37035 0.0387,-0.79851 0.23767,-0.97592 0.0781,-0.0697 0.14212,-0.15174 0.14212,-0.18233 0,-0.0809 0.26132,-0.30629 0.36424,-0.31416 0.0992,-0.008 0.13161,-0.0159 0.23864,-0.061 0.0415,-0.0175 0.17709,-0.0449 0.30144,-0.0609 0.12435,-0.0161 0.30644,-0.05 0.40466,-0.0755 0.13091,-0.0339 0.25367,-0.0211 0.45996,0.0482 0.49647,0.16661 1.19821,0.24278 1.48037,0.16069 0.2393,-0.0696 0.54382,0.13158 0.48948,0.32339 -0.0138,0.0488 8.1e-4,0.10567 0.0325,0.12643 0.0422,0.0276 0.0403,0.0491 -0.007,0.0802 -0.053,0.0347 -0.0529,0.058 7.8e-4,0.12644 0.0476,0.0608 0.0493,0.0839 0.006,0.0839 -0.0326,0 -0.0454,0.024 -0.0283,0.0532 0.0171,0.0293 0.008,0.0532 -0.0192,0.0532 -0.0277,0 -0.0426,0.0423 -0.0332,0.0941 0.009,0.0518 -0.038,0.16205 -0.10543,0.24507 -0.10278,0.12661 -0.14853,0.14565 -0.28375,0.11811 -0.0887,-0.0181 -0.26295,-0.13057 -0.38729,-0.25002 -0.12435,-0.11943 -0.31086,-0.26334 -0.41448,-0.31977 -0.10362,-0.0564 -0.1884,-0.12226 -0.1884,-0.14625 0,-0.024 -0.0881,-0.0744 -0.19589,-0.11214 -0.29903,-0.10457 -1.02573,-0.0272 -1.29137,0.13753 -0.3821,0.23693 -0.45696,0.3854 -0.36309,0.72008 0.0472,0.16858 0.29291,0.54851 0.29291,0.45306 0,-0.0192 0.0844,0.0129 0.18765,0.0716 0.10321,0.0587 0.22505,0.10658 0.27076,0.10658 0.0457,0 0.13646,0.0474 0.2017,0.10539 0.0989,0.0879 0.10648,0.11383 0.0456,0.15619 -0.0401,0.028 -0.091,0.039 -0.11303,0.0246 -0.0221,-0.0144 -0.0401,-0.003 -0.0401,0.0248 0,0.056 -0.44929,0.10972 -0.47985,0.0574 z"
         id="path34" />
      <path
         style="fill:#000000;fill-opacity:1;stroke-width:0.0228068"
         d="m 331.09292,523.32207 c -0.35601,-0.29277 -0.70148,-0.36896 -1.97116,-0.43473 -0.97425,-0.0505 -1.23843,-0.0947 -1.23843,-0.20725 0,-0.0246 -0.0679,-0.0591 -0.15071,-0.0767 -0.10792,-0.0229 -0.15072,-0.0625 -0.15072,-0.13974 0,-0.10019 0.0317,-0.1078 0.44805,-0.1078 0.24643,0 0.48233,-0.0139 0.52424,-0.031 0.0585,-0.0238 0.0799,0.0163 0.092,0.17301 0.014,0.17976 0.0367,0.21154 0.19167,0.26753 0.21767,0.0786 0.77733,0.0883 0.90547,0.0156 0.0523,-0.0297 0.10918,-0.13395 0.12651,-0.23179 l 0.0315,-0.17791 0.53587,-0.0444 c 0.79589,-0.0659 1.32802,-0.0619 1.35064,0.0102 0.0106,0.0337 0.10169,0.17342 0.20251,0.31054 l 0.18331,0.24931 -0.19838,0.18458 c -0.36253,0.33733 -0.66449,0.41958 -0.8824,0.24037 z"
         id="path35" />
      <path
         style="fill:#000000;fill-opacity:1;stroke-width:0.0228068"
         d="m 320.9251,523.04455 c -0.16579,-0.0201 -0.36362,-0.0628 -0.4396,-0.095 -0.0759,-0.0322 -0.13816,-0.0443 -0.13816,-0.0268 0,0.0175 -0.0363,-1.1e-4 -0.0807,-0.0392 -0.21563,-0.18963 -0.28613,-0.19408 -0.53459,-0.0337 -0.13118,0.0846 -0.26683,0.1436 -0.30144,0.131 -0.0346,-0.0126 -0.12392,-0.004 -0.19848,0.0176 -0.0863,0.0258 -0.15332,0.0179 -0.18445,-0.0219 -0.10001,-0.12769 -0.19174,-0.51131 -0.20721,-0.86653 -0.009,-0.20144 -0.0189,-0.43813 -0.0225,-0.52596 -0.008,-0.20056 0.10369,-0.61488 0.19124,-0.70766 0.0531,-0.0563 0.11244,-0.0577 0.30125,-0.008 0.24915,0.0665 0.3916,0.22054 0.45312,0.4901 0.0185,0.0812 0.0727,0.18293 0.12037,0.22593 0.0476,0.043 0.18092,0.16647 0.29615,0.27439 0.2169,0.20312 0.24264,0.21379 0.61945,0.25656 0.73675,0.0836 1.0531,0.0725 1.25563,-0.0443 0.10974,-0.0633 0.21384,-0.15098 0.23134,-0.1949 0.0849,-0.21319 0.1108,-0.45267 0.06,-0.5555 -0.12,-0.24291 -0.36881,-0.52686 -0.52053,-0.59403 -0.18972,-0.084 -1.27702,-0.29452 -1.33272,-0.25804 -0.0212,0.0138 -0.0527,8.4e-4 -0.07,-0.0289 -0.0173,-0.0297 -0.0924,-0.0557 -0.16675,-0.0577 -0.0795,-0.003 -7.9e-4,-0.0405 0.19113,-0.0932 0.3891,-0.10676 0.4574,-0.23256 0.19247,-0.35449 -0.0919,-0.0423 -0.13582,-0.0779 -0.0976,-0.0789 0.14221,-0.004 0.46546,0.12599 0.57865,0.23318 0.15096,0.14294 0.18444,0.15042 0.63019,0.14088 0.4441,-0.01 0.82326,0.0827 0.9739,0.23684 0.25352,0.25941 0.46859,0.54215 0.52585,0.69129 0.0939,0.2445 0.0671,0.74899 -0.0454,0.85692 -0.051,0.0489 -0.0806,0.10967 -0.0659,0.13504 0.0148,0.0254 -0.003,0.0462 -0.0391,0.0462 -0.0363,0 -0.0972,0.0746 -0.13536,0.16589 -0.0484,0.11571 -0.13941,0.19788 -0.30114,0.27171 -0.12752,0.0582 -0.34678,0.16409 -0.48724,0.23529 -0.34535,0.17506 -0.76656,0.23411 -1.25181,0.17547 z m 0.45463,-0.29383 c 0.002,-0.0268 0.0201,-0.1037 0.0417,-0.1708 0.0305,-0.0946 0.0638,-0.11418 0.14825,-0.0872 0.0849,0.0271 0.0961,0.0204 0.0505,-0.0304 -0.035,-0.039 -0.24718,-0.0738 -0.52752,-0.0864 -0.86505,-0.039 -0.94881,-0.0533 -1.02923,-0.1749 -0.0411,-0.0621 -0.0958,-0.0992 -0.12149,-0.0824 -0.0257,0.0168 -0.0468,0.004 -0.0468,-0.0289 0,-0.0327 -0.0265,-0.0422 -0.0588,-0.021 -0.0395,0.0258 -0.0483,0.01 -0.0269,-0.0495 0.0175,-0.0484 0.0157,-0.0854 -0.004,-0.0823 -0.11693,0.0184 -0.16094,-0.0283 -0.19449,-0.20658 -0.0207,-0.1098 -0.0332,-0.21688 -0.0279,-0.23797 0.0127,-0.0504 -0.19085,-0.16513 -0.22632,-0.12755 -0.0151,0.016 -0.0687,0.006 -0.11919,-0.0229 -0.14458,-0.082 -0.19253,0.0857 -0.17013,0.59502 0.0264,0.59945 0.0404,0.63298 0.24088,0.57557 0.30336,-0.0869 1.21577,-0.0846 1.16472,0.003 -0.0205,0.0351 0.014,0.0349 0.10174,-3.8e-4 0.073,-0.0294 0.15905,-0.0356 0.19127,-0.0138 0.0322,0.0218 0.16559,0.0416 0.2964,0.0439 0.26094,0.004 0.35253,0.0555 0.238,0.13224 -0.0646,0.0433 -0.0645,0.0497 0.002,0.0512 0.067,0.002 0.067,0.008 0,0.0581 -0.067,0.0502 -0.067,0.054 0,0.0347 0.0415,-0.012 0.0764,-0.0438 0.0778,-0.0706 z m 1.31865,-0.36003 c 0.0387,-0.0262 0.0559,-0.10618 0.0424,-0.19681 -0.014,-0.0939 0.006,-0.17737 0.0501,-0.21676 0.0497,-0.0437 0.0625,-0.11428 0.0401,-0.22196 -0.0205,-0.0991 -0.0142,-0.14572 0.0172,-0.12521 0.0274,0.0179 0.0617,-0.0149 0.076,-0.0733 0.0144,-0.0583 0.006,-0.0925 -0.0194,-0.0761 -0.0412,0.027 -0.0668,-0.047 -0.0515,-0.14946 0.003,-0.0219 -0.0128,-0.04 -0.0358,-0.04 -0.0229,0 -0.0391,-0.0831 -0.0359,-0.18477 0.005,-0.15963 -0.009,-0.18346 -0.1051,-0.17506 -0.0822,0.007 -0.10066,0.0308 -0.0713,0.0916 0.0407,0.0842 0.0358,0.55415 -0.009,0.81387 -0.0138,0.0805 -0.006,0.14641 0.0183,0.14641 0.0238,0 0.0433,0.0592 0.0433,0.13141 0,0.095 -0.0209,0.12292 -0.0754,0.10078 -0.0415,-0.0168 -0.0754,-0.007 -0.0754,0.0218 0,0.0288 -0.0679,0.0463 -0.15072,0.0388 -0.0829,-0.008 -0.15072,0.008 -0.15072,0.0331 0,0.0257 -0.0339,0.0467 -0.0754,0.0467 -0.0415,0 -0.0754,0.0201 -0.0754,0.0445 0,0.0571 0.55669,0.0487 0.64289,-0.01 z m -0.0902,-0.30097 c 0,-0.0292 -0.024,-0.0532 -0.0532,-0.0532 -0.0293,0 -0.0392,0.024 -0.0221,0.0532 0.0171,0.0292 0.041,0.0532 0.0532,0.0532 0.0122,0 0.0221,-0.024 0.0221,-0.0532 z m -0.30144,-1.56731 c 0,-0.0129 -0.0226,-0.0383 -0.0502,-0.0564 -0.0277,-0.0181 -0.0502,-0.008 -0.0502,0.0235 0,0.031 0.0226,0.0564 0.0502,0.0564 0.0276,0 0.0502,-0.0105 0.0502,-0.0235 z"
         id="path37" />
      <path
         style="fill:#000000;fill-opacity:1;stroke-width:0.0228068"
         d="m 321.32423,522.57276 c -0.1,-0.10265 -1.61501,-0.17675 -1.97073,-0.0964 -0.14566,0.0329 -0.17054,0.0214 -0.21352,-0.0983 -0.057,-0.15889 -0.0642,-0.87215 -0.01,-0.96296 0.0245,-0.0409 0.098,-0.0495 0.21275,-0.0248 0.15447,0.0332 0.18133,0.064 0.22628,0.25975 0.0538,0.23455 0.12614,0.3238 0.4514,0.55729 0.18144,0.13023 0.26073,0.14782 0.8164,0.181 0.33849,0.0202 0.61509,0.0511 0.61467,0.0687 -0.002,0.0856 -0.0843,0.16019 -0.12763,0.11571 z"
         id="path39" />
      <path
         style="fill:#000000;fill-opacity:1;stroke-width:0.0228068"
         d="m 319.39587,512.89041 c -0.18889,-0.20162 -0.18668,-0.53076 0.004,-0.64441 0.1201,-0.0715 0.15326,-0.0694 0.3412,0.0203 0.12822,0.0613 0.19853,0.12611 0.18306,0.16883 -0.0138,0.0382 0.0135,0.0932 0.0607,0.12239 0.0472,0.0291 0.0681,0.0538 0.0464,0.0546 -0.0217,8.5e-4 -0.0161,0.0479 0.0124,0.10439 0.0391,0.0776 0.0326,0.12325 -0.0269,0.18632 -0.0434,0.046 -0.1055,0.0852 -0.13806,0.0872 -0.0326,0.002 -0.12435,0.0127 -0.20396,0.0237 -0.10639,0.0148 -0.18038,-0.0179 -0.27921,-0.12344 z"
         id="path40" />
      <path
         style="fill:#000000;fill-opacity:1;stroke-width:0.0228068"
         d="m 316.27026,513.06738 c -0.01,-0.01 -0.0966,-0.0281 -0.19332,-0.04 -0.22144,-0.0275 -0.45216,-0.14439 -0.45216,-0.22908 0,-0.39298 0.16834,-0.54666 0.57407,-0.52406 0.21439,0.012 0.29578,0.0566 0.32817,0.17992 0.0831,0.31621 0.085,0.42592 0.009,0.49501 -0.0896,0.0812 -0.23779,0.14722 -0.26555,0.11826 z"
         id="path41" />
      <path
         style="fill:#000000;fill-opacity:1;stroke-width:0.0228068"
         d="m 312.2425,522.61565 c -0.0504,-0.031 -0.14506,-0.0422 -0.21044,-0.0248 -0.0654,0.0174 -0.13313,0.007 -0.15055,-0.0227 -0.0174,-0.0298 -0.0477,-0.0438 -0.0673,-0.0309 -0.0577,0.0378 -0.65378,-0.10889 -0.73601,-0.1812 -0.0416,-0.0366 -0.0759,-0.0934 -0.0763,-0.12642 -4.6e-4,-0.033 -0.10417,-0.16579 -0.23048,-0.29506 -0.1263,-0.12927 -0.25008,-0.29198 -0.27505,-0.36158 -0.0391,-0.10882 -0.12482,-1.4884 -0.10192,-1.63926 0.005,-0.0292 0.0152,-0.14907 0.024,-0.26618 0.0194,-0.26036 0.0829,-0.67735 0.11024,-0.72421 0.0111,-0.019 0.0739,-0.0344 0.1397,-0.0344 0.11127,0 0.11844,0.0172 0.10238,0.24621 -0.0135,0.19235 -0.007,0.2171 0.027,0.11313 0.0436,-0.1312 0.0443,-0.13079 0.0492,0.0292 0.002,0.0893 -0.0233,0.19463 -0.0578,0.23407 -0.0379,0.0433 -0.04,0.0582 -0.006,0.0376 0.0316,-0.0188 0.0704,0.002 0.0862,0.0451 0.0158,0.0436 0.10168,0.12628 0.19089,0.18376 0.14742,0.095 0.25728,0.10451 1.20744,0.10451 0.63238,0 1.04526,-0.0201 1.04526,-0.051 0,-0.028 0.0331,-0.051 0.0736,-0.051 0.11282,0 0.1937,-0.20822 0.20961,-0.5396 0.0124,-0.25966 -0.006,-0.33312 -0.13915,-0.54569 -0.0845,-0.13511 -0.1724,-0.23331 -0.19543,-0.21823 -0.023,0.015 -0.0559,-0.0194 -0.073,-0.0766 -0.0318,-0.10612 -0.2021,-0.18345 -0.54565,-0.24774 -0.17203,-0.0322 -0.18459,-0.0447 -0.11679,-0.11658 0.0418,-0.0443 0.14543,-0.0831 0.23032,-0.0864 0.0849,-0.003 0.1544,-0.0252 0.15447,-0.0489 6e-5,-0.0237 0.0284,-0.0243 0.0629,-0.002 0.0346,0.0229 0.11876,0.0499 0.18715,0.0598 0.15198,0.0221 0.25245,0.10483 0.25245,0.20788 0,0.0986 0.12237,0.22923 0.21471,0.22923 0.083,0 0.23746,0.16674 0.23746,0.25635 0,0.0339 0.0798,0.13981 0.17735,0.23536 0.15651,0.15331 0.18017,0.21127 0.20133,0.49314 0.0131,0.17569 0.0346,0.39491 0.0476,0.48717 0.0165,0.11666 8.1e-4,0.17699 -0.0509,0.19809 -0.0411,0.0167 -0.69205,0.0325 -1.4467,0.0351 -1.93325,0.007 -2.03198,0.044 -2.10829,0.79689 -0.0286,0.28222 0.3085,0.77154 0.66757,0.96901 0.0691,0.038 0.15523,0.11114 0.19145,0.16254 0.14465,0.20532 0.31525,0.24555 0.96707,0.22803 0.34375,-0.009 0.66967,-0.0255 0.72427,-0.036 0.16341,-0.0317 0.1303,0.17791 -0.0355,0.2249 -0.18242,0.0517 -0.54466,0.11304 -0.65308,0.11059 -0.0478,-8.5e-4 -0.10002,0.0205 -0.116,0.0479 -0.0367,0.0629 -0.0753,0.0609 -0.19007,-0.01 z"
         id="path42" />
      <path
         style="fill:#000000;fill-opacity:1;stroke-width:0.0114034"
         d="m 312.2587,522.8084 c -0.0194,-0.0649 -0.0593,-0.0683 -0.10063,-0.009 -0.0285,0.0412 -0.0361,0.0402 -0.10036,-0.0133 -0.0848,-0.0707 -0.14192,-0.076 -0.12268,-0.0114 0.01,0.0337 -5.8e-4,0.0292 -0.0385,-0.0162 -0.0324,-0.0389 -0.0526,-0.049 -0.0532,-0.0266 -5.4e-4,0.0246 -0.012,0.0206 -0.036,-0.013 -0.0193,-0.0271 -0.0465,-0.0418 -0.0602,-0.0328 -0.0138,0.009 -0.0327,0.003 -0.0419,-0.0125 -0.009,-0.0159 -0.0341,-0.0218 -0.0552,-0.0132 -0.0211,0.009 -0.0532,0.003 -0.0713,-0.0134 -0.0181,-0.016 -0.0647,-0.032 -0.10357,-0.0354 -0.16527,-0.015 -0.46287,-0.13164 -0.51127,-0.20026 -0.0267,-0.0379 -0.06,-0.0834 -0.074,-0.10103 -0.014,-0.0177 -0.0254,-0.0377 -0.0254,-0.0445 0,-0.007 -0.0351,-0.0495 -0.0778,-0.0948 -0.0464,-0.0491 -0.072,-0.0986 -0.0634,-0.12245 0.0118,-0.0325 0.005,-0.0347 -0.0352,-0.0118 -0.0399,0.0226 -0.0496,0.0197 -0.0496,-0.0143 0,-0.0234 -0.009,-0.0365 -0.0203,-0.0291 -0.0188,0.0123 -0.1174,-0.10468 -0.11826,-0.14047 -2.1e-4,-0.009 -0.009,-0.031 -0.0203,-0.0494 -0.011,-0.0183 -0.0119,-0.0332 -0.002,-0.0332 0.01,0 -0.002,-0.024 -0.0275,-0.0532 -0.025,-0.0292 -0.0367,-0.0532 -0.0259,-0.0532 0.0107,0 0.008,-0.015 -0.006,-0.0333 -0.0137,-0.0183 -0.0214,-0.0565 -0.0172,-0.085 0.004,-0.0285 1.1e-4,-0.0643 -0.009,-0.0799 -0.009,-0.0155 -0.0198,-0.0521 -0.023,-0.0813 -0.003,-0.0292 -0.0128,-0.10116 -0.0213,-0.15972 -0.009,-0.0585 -0.0172,-0.1364 -0.0194,-0.17301 -0.002,-0.0366 -0.0181,-0.0824 -0.0354,-0.10171 -0.0378,-0.0423 -0.0415,-0.11123 -0.006,-0.11123 0.0149,0 0.01,-0.04 -0.0126,-0.0964 -0.0209,-0.053 -0.0376,-0.14588 -0.0371,-0.20629 5e-4,-0.0604 -0.003,-0.23363 -0.009,-0.38492 -0.006,-0.19459 -4.8e-4,-0.2847 0.0215,-0.30796 0.021,-0.0223 0.0233,-0.0474 0.007,-0.0781 -0.0257,-0.0486 -0.005,-0.15952 0.0266,-0.13915 0.0104,0.007 0.0136,-0.0247 0.007,-0.0699 -0.008,-0.0569 -0.002,-0.0765 0.0171,-0.0636 0.0156,0.0103 0.0285,0.006 0.0285,-0.01 0,-0.0155 -0.0141,-0.0286 -0.0314,-0.029 -0.0172,-4.5e-4 -0.0114,-0.0132 0.0131,-0.0283 0.0245,-0.0151 0.0376,-0.0392 0.0292,-0.0535 -0.008,-0.0144 -0.005,-0.0406 0.009,-0.0583 0.0131,-0.0177 0.0254,-0.0501 0.0274,-0.072 0.004,-0.0484 0.0239,-0.18463 0.0345,-0.23956 0.016,-0.0832 0.0764,-0.21294 0.099,-0.21294 0.0129,0 0.0165,-0.012 0.008,-0.0266 -0.008,-0.0146 -0.003,-0.0266 0.0111,-0.0266 0.0146,0 0.0266,-0.0179 0.0266,-0.0399 0,-0.0219 0.008,-0.0385 0.0188,-0.0368 0.0103,0.002 0.04,0.002 0.0659,0 0.0374,-0.003 0.0411,-0.0108 0.0179,-0.0404 -0.0231,-0.0295 -0.0152,-0.0489 0.038,-0.0932 0.0369,-0.0308 0.0768,-0.0559 0.0885,-0.0559 0.0118,0 0.0383,-0.0427 0.0589,-0.0951 0.0206,-0.0523 0.049,-0.0875 0.0631,-0.0783 0.0141,0.009 0.0257,0.003 0.0257,-0.0132 0,-0.0165 0.0382,-0.0681 0.0848,-0.11469 0.0893,-0.0892 0.29196,-0.22081 0.29196,-0.18964 0,0.01 0.0169,0.003 0.0377,-0.0149 0.0207,-0.0182 0.0377,-0.0242 0.0377,-0.0134 0,0.0109 0.0141,0.009 0.0314,-0.004 0.0172,-0.0132 0.0794,-0.0236 0.13813,-0.0232 0.0587,4.2e-4 0.10674,-0.009 0.10676,-0.0189 10e-6,-0.0108 0.0254,-0.0193 0.0565,-0.019 0.11032,0.002 0.30888,-0.0244 0.38902,-0.0507 0.0495,-0.0162 0.0869,-0.017 0.0957,-0.002 0.0258,0.0443 0.0934,0.0282 0.0766,-0.0183 -0.0111,-0.0308 -0.005,-0.0383 0.0225,-0.0266 0.0209,0.009 0.0568,0.0243 0.0798,0.0341 0.0289,0.0123 0.036,0.008 0.023,-0.0144 -0.0138,-0.0236 1e-4,-0.0275 0.0524,-0.0147 0.0695,0.0172 0.07,0.0165 0.0209,-0.0277 l -0.0502,-0.0453 0.0502,0.0185 c 0.1393,0.0513 0.15349,0.0498 0.0879,-0.009 -0.0717,-0.0644 -0.0431,-0.0749 0.0502,-0.0184 0.0772,0.0467 0.12109,0.0511 0.0804,0.008 -0.0716,-0.0759 -0.002,-0.10423 0.0747,-0.0305 0.043,0.0412 0.046,0.0408 0.0471,-0.007 8.1e-4,-0.0367 0.0107,-0.0287 0.0356,0.0291 0.0282,0.0651 0.0354,0.07 0.0391,0.0266 0.004,-0.0454 0.007,-0.0434 0.0247,0.0134 0.0171,0.0565 0.0208,0.0585 0.0244,0.0133 0.004,-0.0494 0.006,-0.0497 0.0223,-0.005 0.01,0.0267 0.0249,0.0447 0.0333,0.0399 0.008,-0.005 0.039,0.0142 0.0681,0.0421 0.0346,0.0332 0.0529,0.039 0.0529,0.0167 0,-0.0268 0.008,-0.0271 0.0366,-0.002 0.0201,0.0177 0.0476,0.025 0.061,0.0162 0.0135,-0.009 0.0316,-0.004 0.0403,0.011 0.009,0.0149 0.0384,0.027 0.066,0.027 0.0276,0 0.0432,0.012 0.0347,0.0266 -0.009,0.0146 -0.005,0.0266 0.009,0.0266 0.0367,0 0.23005,0.19065 0.21664,0.21364 -0.006,0.011 0.006,0.0347 0.0258,0.0528 0.0206,0.0181 0.0378,0.0224 0.0382,0.01 4.4e-4,-0.0127 0.0148,-0.005 0.032,0.0168 0.0172,0.0219 0.0535,0.0529 0.0808,0.0687 0.0273,0.0158 0.0772,0.0729 0.1107,0.12692 0.0434,0.0698 0.0669,0.0884 0.0813,0.0644 0.0136,-0.0227 0.0204,-0.0137 0.0206,0.0277 2.2e-4,0.0342 0.0115,0.0541 0.0255,0.045 0.0138,-0.009 0.0251,0.009 0.0251,0.0383 0,0.0567 0.0814,0.16127 0.1256,0.16127 0.0138,0 0.0251,0.0133 0.0251,0.0294 0,0.0162 0.0276,0.0642 0.0614,0.10665 0.0342,0.0431 0.057,0.10066 0.0516,0.13028 -0.006,0.0292 -2.9e-4,0.053 0.0111,0.053 0.0114,0 0.0191,0.0539 0.017,0.11977 -0.002,0.0659 0.002,0.11979 0.009,0.1198 0.007,10e-6 0.0152,0.0509 0.0177,0.11313 0.007,0.17588 0.0229,0.26301 0.0504,0.282 0.0139,0.01 0.0231,0.0449 0.0205,0.0784 -0.002,0.0336 0.005,0.0673 0.0168,0.075 0.0118,0.008 0.0149,0.0252 0.007,0.0388 -0.008,0.0136 -0.002,0.0248 0.0122,0.0248 0.0521,0 0.0256,0.0815 -0.0362,0.11131 -0.0346,0.0167 -0.0628,0.0404 -0.0628,0.0527 0,0.0123 -0.0169,0.0224 -0.0377,0.0224 -0.0207,0 -0.0377,0.01 -0.0377,0.0223 0,0.0762 -0.15403,0.085 -1.50297,0.0848 -1.37764,-1.7e-4 -1.42736,8.4e-4 -1.47375,0.0298 -0.0318,0.0199 -0.22185,0.0853 -0.23864,0.0821 -0.007,-0.002 -0.0217,0.015 -0.033,0.0362 -0.0112,0.0212 -0.0285,0.0332 -0.0386,0.0267 -0.016,-0.0105 -0.16521,0.28912 -0.16657,0.33466 -3e-4,0.01 -0.008,0.0259 -0.0177,0.0359 -0.009,0.01 -0.0103,0.0369 -0.002,0.0598 0.008,0.0233 0.005,0.0348 -0.009,0.0259 -0.0406,-0.0266 -0.0234,0.1271 0.0225,0.20138 0.0238,0.0385 0.0432,0.0751 0.0432,0.0813 0,0.006 0.0509,0.0659 0.11305,0.13277 0.0622,0.0668 0.11304,0.13319 0.11304,0.14748 0,0.0143 0.0141,0.0423 0.0314,0.0623 0.0172,0.02 0.0436,0.0597 0.0585,0.0884 0.0149,0.0286 0.0516,0.0639 0.0816,0.0784 0.0299,0.0145 0.0545,0.0421 0.0545,0.0614 0,0.0194 0.0107,0.0281 0.0239,0.0195 0.027,-0.0178 0.20796,0.0773 0.1878,0.0987 -0.007,0.008 0.0162,0.0216 0.052,0.0311 0.0358,0.01 0.0585,0.0285 0.0505,0.0421 -0.0192,0.0329 0.0827,0.13974 0.11384,0.11937 0.0133,-0.009 0.0242,0.003 0.0242,0.0272 0,0.0237 0.009,0.0375 0.019,0.0307 0.0104,-0.007 0.0598,0.009 0.10983,0.0344 0.05,0.0257 0.12696,0.0426 0.17111,0.0375 0.0441,-0.005 0.10121,0.003 0.12678,0.0171 0.0326,0.0185 0.0494,0.0171 0.0563,-0.005 0.006,-0.0204 0.0223,-0.0227 0.046,-0.007 0.0199,0.0135 0.0588,0.025 0.0864,0.0256 0.0276,5.9e-4 0.0644,0.0104 0.0816,0.0217 0.0206,0.0135 0.0321,0.004 0.0334,-0.0275 8e-4,-0.0265 0.007,-0.0349 0.0135,-0.0185 0.008,0.0201 0.0463,0.0228 0.11922,0.009 0.11962,-0.0237 0.16244,-0.021 0.21456,0.0135 0.0229,0.0151 0.0296,0.0135 0.019,-0.004 -0.014,-0.024 0.0227,-0.0543 0.0902,-0.0745 0.0103,-0.003 0.0274,-0.008 0.0377,-0.0121 0.0103,-0.003 0.0273,-0.005 0.0377,-0.003 0.0103,0.002 0.0188,-0.0103 0.0188,-0.0267 0,-0.0205 0.0121,-0.0193 0.0383,0.003 0.0325,0.0285 0.0357,0.026 0.0211,-0.0168 -0.009,-0.0277 -0.009,-0.0422 0.002,-0.0323 0.0104,0.01 0.0529,-0.023 0.0945,-0.0731 0.0415,-0.0502 0.0857,-0.0845 0.0981,-0.0763 0.0124,0.008 0.0226,0.004 0.0226,-0.009 0,-0.027 0.37023,-0.22744 0.42018,-0.22744 0.0176,0 0.032,-0.01 0.032,-0.0222 0,-0.0121 0.009,-0.0192 0.0193,-0.0155 0.029,0.01 0.15726,-0.10346 0.13891,-0.1229 -0.009,-0.009 -0.002,-0.0168 0.0149,-0.0168 0.0169,0 0.0241,-0.0116 0.0158,-0.0258 -0.008,-0.0141 0.0326,-0.0623 0.0909,-0.10701 0.0797,-0.0612 0.11092,-0.0729 0.12617,-0.0475 0.0111,0.0186 0.0204,0.0234 0.0206,0.0106 2.1e-4,-0.0128 0.0156,-0.01 0.0341,0.007 0.0185,0.0163 0.0411,0.0217 0.0502,0.0121 0.009,-0.01 0.0165,-0.003 0.0165,0.0151 0,0.0179 0.0105,0.0258 0.0234,0.0173 0.0128,-0.009 0.0306,-0.003 0.0394,0.0121 0.009,0.0151 0.0266,0.0206 0.0394,0.0122 0.0128,-0.009 0.0234,-0.003 0.0234,0.0129 0,0.0155 0.0198,0.0284 0.0439,0.0286 0.0375,3.5e-4 0.0385,0.004 0.006,0.0262 -0.0207,0.0142 -0.0264,0.0262 -0.0125,0.0266 0.0138,4.5e-4 0.008,0.0121 -0.0126,0.0261 -0.0207,0.0139 -0.0377,0.0381 -0.0377,0.0538 0,0.0157 -0.0169,0.0399 -0.0377,0.0538 -0.0318,0.0212 -0.032,0.0253 -0.002,0.0257 0.026,3e-4 0.0224,0.0115 -0.0126,0.0395 -0.0373,0.0299 -0.0399,0.0394 -0.0111,0.0403 0.033,8.5e-4 0.0331,0.004 7.3e-4,0.026 -0.0203,0.0136 -0.0288,0.0334 -0.0188,0.044 0.01,0.0106 -5.7e-4,0.0412 -0.0235,0.068 -0.0333,0.0389 -0.0345,0.049 -0.006,0.0504 0.0194,8.5e-4 0.009,0.0128 -0.0229,0.0263 -0.032,0.0136 -0.0511,0.0368 -0.0424,0.0516 0.0124,0.0213 -0.0726,0.0778 -0.13806,0.0915 -0.007,0.002 -0.0238,0.009 -0.0377,0.0173 -0.0138,0.008 -0.0421,0.0134 -0.0628,0.012 -0.0207,-0.002 -0.0444,0.008 -0.0528,0.02 -0.008,0.0124 -0.0309,0.0256 -0.0502,0.0292 -0.0801,0.0149 -0.14821,0.0485 -0.14821,0.0732 0,0.0145 -0.0113,0.019 -0.0251,0.01 -0.0138,-0.009 -0.0251,-0.003 -0.0251,0.0133 0,0.0164 -0.0113,0.0223 -0.0251,0.0133 -0.0138,-0.009 -0.0251,-0.005 -0.0251,0.009 0,0.0141 -0.0226,0.0195 -0.0502,0.0118 -0.0281,-0.008 -0.0502,-8.2e-4 -0.0502,0.0158 0,0.0163 0.0141,0.0298 0.0314,0.0299 0.0172,10e-5 -0.002,0.024 -0.044,0.053 -0.0415,0.0291 -0.0641,0.053 -0.0502,0.0532 0.0138,1.9e-4 -0.007,0.0182 -0.0466,0.0399 -0.0395,0.0217 -0.0806,0.0337 -0.0916,0.0266 -0.0109,-0.007 -0.0269,0.007 -0.0357,0.0306 -0.009,0.024 -0.0221,0.037 -0.0297,0.0289 -0.008,-0.009 -0.0497,-0.003 -0.0936,0.0112 -0.0439,0.0143 -0.0911,0.0293 -0.10487,0.0335 -0.0138,0.004 -0.044,0.0163 -0.0671,0.0269 -0.0231,0.0106 -0.057,0.022 -0.0754,0.0252 -0.0184,0.003 -0.059,0.0208 -0.0904,0.0391 -0.0314,0.0183 -0.0686,0.0257 -0.0827,0.0164 -0.0141,-0.009 -0.042,-0.003 -0.062,0.015 -0.02,0.0175 -0.0526,0.0252 -0.0727,0.0171 -0.0201,-0.009 -0.0654,0.009 -0.1008,0.0388 -0.0606,0.0505 -0.0645,0.0508 -0.0653,0.005 -7.6e-4,-0.0411 -0.006,-0.0393 -0.0324,0.0116 -0.0229,0.0436 -0.0391,0.0521 -0.0591,0.0309 -0.0198,-0.021 -0.0323,-0.0211 -0.0444,-2.5e-4 -0.0261,0.0448 -0.0592,0.0343 -0.0767,-0.0243 z m 0.18575,-0.16963 c 0.0157,-0.0201 0.0991,-0.0445 0.1852,-0.0542 0.0861,-0.01 0.25544,-0.0365 0.37628,-0.0593 0.25473,-0.0484 0.3524,-0.11111 0.3406,-0.21894 l -0.008,-0.0701 -0.3768,0.0133 c -0.61292,0.0217 -1.04577,0.0117 -1.15483,-0.0263 -0.0548,-0.0191 -0.15644,-0.0911 -0.22596,-0.15998 -0.0695,-0.0688 -0.19184,-0.16901 -0.27182,-0.22259 -0.26736,-0.17916 -0.51138,-0.4921 -0.58451,-0.74959 -0.0639,-0.22467 0.0249,-0.61585 0.16867,-0.74408 0.18204,-0.1623 0.49878,-0.19488 2.14885,-0.22097 0.92099,-0.0145 1.21839,-0.0272 1.24247,-0.0527 0.0418,-0.0443 -0.0337,-0.8731 -0.0896,-0.9836 -0.0206,-0.0408 -0.10025,-0.14578 -0.17695,-0.23332 -0.0767,-0.0875 -0.13947,-0.17625 -0.13947,-0.19713 0,-0.0773 -0.12677,-0.21423 -0.22823,-0.24643 -0.10664,-0.0338 -0.22393,-0.15531 -0.22393,-0.23186 0,-0.0822 -0.0756,-0.16158 -0.18303,-0.19208 -0.0582,-0.0166 -0.15517,-0.0484 -0.21545,-0.0707 -0.0726,-0.027 -0.115,-0.0314 -0.12561,-0.0132 -0.009,0.015 -0.0829,0.0405 -0.16476,0.0565 -0.1611,0.0315 -0.26571,0.0892 -0.26571,0.14636 0,0.0237 0.0835,0.0563 0.24492,0.0957 0.2914,0.0711 0.42684,0.13827 0.459,0.22791 0.013,0.0363 0.0517,0.0773 0.0861,0.0911 0.0726,0.0292 0.19949,0.20269 0.27097,0.37035 0.0419,0.0983 0.0481,0.15764 0.0387,0.37265 -0.0151,0.34326 -0.0618,0.45991 -0.21638,0.54062 -0.11616,0.0606 -0.12468,0.0611 -1.12185,0.0611 h -1.0048 l -0.12049,-0.0629 c -0.0663,-0.0346 -0.15105,-0.10344 -0.1884,-0.15305 -0.0374,-0.0496 -0.0815,-0.0902 -0.098,-0.0902 -0.0222,-10e-6 -0.0205,-0.0242 0.006,-0.0923 0.0415,-0.1053 0.0489,-0.30696 0.0113,-0.30696 -0.0138,0 -0.027,0.0149 -0.0294,0.0333 -0.002,0.0183 -0.0108,-0.0386 -0.0188,-0.12643 l -0.0146,-0.1597 -0.10049,-0.007 c -0.1307,-0.009 -0.16201,0.0157 -0.1906,0.15051 -0.046,0.21714 -0.0983,0.7918 -0.0982,1.08068 5e-5,0.41849 0.0711,1.36204 0.10999,1.4606 0.0181,0.0459 0.13166,0.19694 0.25239,0.33574 0.12072,0.13879 0.23455,0.29055 0.25297,0.33723 0.0185,0.0467 0.0564,0.0979 0.0843,0.11373 0.0926,0.0525 0.51661,0.16161 0.63162,0.16255 0.0622,5e-4 0.13405,0.0178 0.15974,0.0384 0.0322,0.0258 0.0836,0.0329 0.16536,0.0226 0.0829,-0.0104 0.14077,-0.003 0.19195,0.0271 0.0913,0.0524 0.17143,0.0553 0.20878,0.008 z m 0.11918,-2.82593 c 0.0516,0.0103 0.0844,0.006 0.0844,-0.0107 0,-0.0151 0.0282,-0.0251 0.0628,-0.022 0.0346,0.003 0.0628,0.0143 0.0628,0.0249 0,0.0107 0.0341,0.007 0.0756,-0.009 0.0416,-0.0154 0.0931,-0.0209 0.11435,-0.0122 0.0221,0.009 0.0321,0.004 0.0233,-0.0106 -0.008,-0.0144 0.003,-0.0263 0.0253,-0.0263 0.0224,0 0.0341,0.0112 0.0262,0.0249 -0.009,0.0153 0.0153,0.0158 0.063,0.002 0.0454,-0.0138 0.10221,-0.0136 0.13708,4.3e-4 0.0514,0.0207 0.0639,0.0135 0.0916,-0.0527 0.0176,-0.0421 0.0401,-0.0713 0.05,-0.0648 0.01,0.007 0.0253,-5.5e-4 0.0341,-0.0156 0.009,-0.0151 0.0264,-0.0207 0.0391,-0.0123 0.0127,0.008 0.0163,-0.003 0.008,-0.0265 -0.008,-0.0229 -8.1e-4,-0.0595 0.016,-0.0812 0.0205,-0.0263 0.0218,-0.0396 0.003,-0.0396 -0.0151,0 -0.0209,-0.0179 -0.013,-0.0398 0.008,-0.0218 0.023,-0.0342 0.0335,-0.0273 0.0105,0.007 0.0152,-0.0226 0.0105,-0.0655 -0.005,-0.0429 0.004,-0.0861 0.0186,-0.0959 0.0188,-0.0123 0.0177,-0.024 -0.004,-0.0381 -0.0187,-0.0122 -0.0228,-0.0345 -0.0102,-0.0561 0.0282,-0.0485 0.0323,-0.12988 0.006,-0.12988 -0.0115,0 -0.0191,-0.009 -0.0168,-0.02 0.009,-0.0432 -0.0358,-0.16518 -0.0557,-0.15212 -0.0116,0.008 -0.0335,-0.0104 -0.0485,-0.0401 -0.015,-0.0297 -0.0452,-0.054 -0.0671,-0.054 -0.0329,0 -0.0343,-0.007 -0.008,-0.0405 0.0267,-0.0341 0.0249,-0.0377 -0.0111,-0.0231 -0.0428,0.0173 -0.13513,-0.0833 -0.12046,-0.1313 0.004,-0.0121 -0.005,-0.0144 -0.019,-0.005 -0.0142,0.009 -0.0257,-0.002 -0.0257,-0.0246 0,-0.0229 -0.009,-0.0386 -0.0188,-0.035 -0.0298,0.0102 -0.13342,-0.0758 -0.11497,-0.0953 0.009,-0.01 -0.003,-0.0176 -0.0268,-0.0176 -0.0238,0 -0.0363,-0.012 -0.0278,-0.0266 0.009,-0.0146 0.006,-0.0276 -0.005,-0.0288 -0.0264,-0.003 -0.0991,-0.0162 -0.20872,-0.0382 -0.0484,-0.01 -0.10794,-0.0172 -0.13242,-0.0168 -0.0245,4.3e-4 -0.0396,-0.008 -0.0336,-0.0179 0.006,-0.0103 -0.0249,-0.0206 -0.0686,-0.0229 -0.0437,-0.003 -0.12119,-0.009 -0.17222,-0.0146 -0.051,-0.006 -0.0878,-0.002 -0.0818,0.009 0.006,0.0104 -0.0144,0.0185 -0.0454,0.0183 -0.14405,-0.002 -0.41965,0.0521 -0.46267,0.09 -0.0171,0.015 -0.0421,0.0202 -0.0556,0.0113 -0.0135,-0.009 -0.0317,-0.003 -0.0405,0.0115 -0.009,0.0151 -0.0265,0.0206 -0.0394,0.0122 -0.0128,-0.009 -0.0234,-6.3e-4 -0.0234,0.0173 0,0.0179 -0.007,0.0252 -0.0156,0.0162 -0.0206,-0.0218 -0.0848,0.0475 -0.0853,0.0922 -2.8e-4,0.0259 -0.006,0.0247 -0.0242,-0.005 -0.0207,-0.0347 -0.0298,-0.0334 -0.0687,0.01 -0.0338,0.0375 -0.0369,0.0529 -0.0124,0.0625 0.0464,0.0182 -0.0116,0.0874 -0.0732,0.0874 -0.0304,0 -0.0472,0.0189 -0.0472,0.0532 0,0.0292 -0.0105,0.0532 -0.0234,0.0532 -0.0129,0 -0.0306,0.0241 -0.0395,0.0536 -0.009,0.0295 -0.0269,0.0466 -0.04,0.0379 -0.0131,-0.009 -0.0225,-0.006 -0.0206,0.006 0.007,0.046 -0.0339,0.14047 -0.0549,0.12673 -0.0121,-0.008 -0.0145,0.006 -0.006,0.0313 0.01,0.0264 0.006,0.039 -0.008,0.0298 -0.0133,-0.009 -0.026,0.0103 -0.0282,0.0422 -0.002,0.032 -0.0107,0.086 -0.0188,0.12017 -0.009,0.0395 -0.005,0.0559 0.0115,0.0451 0.0143,-0.009 0.0274,-0.0434 0.029,-0.0755 0.002,-0.0496 0.005,-0.0509 0.015,-0.008 0.0148,0.0608 -0.0412,0.28294 -0.0712,0.28294 -0.0245,0 -0.0178,0.0766 0.0109,0.12528 0.0104,0.0177 0.0362,0.0251 0.0573,0.0165 0.025,-0.0102 0.0431,0.003 0.0519,0.0393 0.009,0.0364 0.0268,0.0495 0.0529,0.0388 0.0241,-0.01 0.033,-0.005 0.0228,0.0123 -0.0142,0.0244 0.0221,0.0546 0.0899,0.0749 0.0104,0.003 0.0245,0.009 0.0314,0.0122 0.007,0.003 0.021,0.008 0.0314,0.0104 0.0103,0.002 0.0302,0.011 0.044,0.02 0.0138,0.009 0.17207,0.0134 0.35168,0.01 0.1796,-0.003 0.37743,0.002 0.4396,0.0112 0.0622,0.01 0.15134,0.007 0.19816,-0.006 0.0468,-0.0129 0.12312,-0.016 0.16956,-0.007 z"
         id="path43" />
      <path
         style="fill:#000000;fill-opacity:1;stroke-width:0.0114034"
         d="m 303.34111,522.66044 c -0.0415,-0.0204 -0.10194,-0.0309 -0.13442,-0.0233 -0.0325,0.008 -0.0946,0.002 -0.13815,-0.0129 -0.10184,-0.0346 -0.21489,-0.0595 -0.28635,-0.0631 -0.0311,-0.002 -0.0566,-0.0105 -0.0566,-0.0197 0,-0.0193 -0.0253,-0.0246 -0.15698,-0.0331 -0.0518,-0.003 -0.0942,-0.0191 -0.0942,-0.0352 0,-0.0161 -0.0224,-0.0506 -0.0496,-0.0767 -0.0273,-0.0262 -0.0441,-0.057 -0.0374,-0.0685 0.006,-0.0115 -0.002,-0.0369 -0.0209,-0.0563 -0.0181,-0.0195 -0.0403,-0.0557 -0.0491,-0.0805 -0.009,-0.0247 -0.0478,-0.0666 -0.0865,-0.0928 -0.0387,-0.0263 -0.0832,-0.0599 -0.0987,-0.0748 -0.0156,-0.0148 -0.0523,-0.0445 -0.0816,-0.0661 -0.0294,-0.0215 -0.0533,-0.0545 -0.0533,-0.0732 0,-0.0187 -0.0109,-0.0341 -0.0243,-0.0341 -0.0134,0 -0.0178,-0.0179 -0.01,-0.0399 0.008,-0.0219 0.005,-0.0399 -0.007,-0.04 -0.0119,-5e-5 -0.0224,-0.043 -0.0235,-0.0954 -8e-4,-0.0524 -0.0124,-0.10331 -0.0251,-0.11305 -0.0127,-0.01 -0.0262,-0.0417 -0.03,-0.071 -0.0228,-0.17635 -0.0529,-0.28769 -0.0833,-0.30758 -0.0203,-0.0133 -0.0186,-0.0229 0.006,-0.0331 0.0268,-0.0113 0.0271,-0.0149 0.002,-0.0166 -0.0181,-8.5e-4 -0.0258,-0.0142 -0.0172,-0.0289 0.009,-0.0147 -0.002,-0.034 -0.0235,-0.0427 -0.0215,-0.009 -0.0336,-0.0254 -0.0269,-0.037 0.006,-0.0116 -0.006,-0.0284 -0.0281,-0.0375 -0.0327,-0.0133 -0.0345,-0.024 -0.009,-0.056 0.0245,-0.0313 0.0245,-0.0396 1.5e-4,-0.0396 -0.0176,0 -0.0245,-0.0178 -0.016,-0.0413 0.009,-0.0237 0.004,-0.0344 -0.01,-0.0251 -0.0136,0.009 -0.0265,5.8e-4 -0.0286,-0.0186 -0.002,-0.0192 -0.006,-0.0468 -0.007,-0.0614 -0.002,-0.0146 -0.0138,-0.0446 -0.0269,-0.0666 -0.0131,-0.0219 -0.0273,-0.0579 -0.0315,-0.0799 -0.0126,-0.0647 -0.0347,-0.24567 -0.0423,-0.34603 -0.004,-0.0512 -0.0156,-0.12625 -0.0259,-0.16671 -0.012,-0.0468 -0.008,-0.0879 0.0121,-0.11312 0.0171,-0.0218 0.0222,-0.0396 0.0115,-0.0396 -0.0107,0 -7.9e-4,-0.0219 0.0221,-0.0487 0.0229,-0.0268 0.0338,-0.057 0.0242,-0.0671 -0.01,-0.0101 0.009,-0.0377 0.0402,-0.0611 0.0436,-0.0323 0.0496,-0.0479 0.0249,-0.0641 -0.0229,-0.015 -0.0116,-0.027 0.0375,-0.04 0.0513,-0.0137 0.061,-0.0247 0.0363,-0.0413 -0.0282,-0.019 -0.0281,-0.0228 3e-4,-0.0231 0.0199,-2.4e-4 0.0281,-0.017 0.0197,-0.0403 -0.008,-0.0219 -0.004,-0.0399 0.008,-0.0399 0.0124,0 0.0298,-0.0241 0.0387,-0.0536 0.009,-0.0295 0.0241,-0.0484 0.0341,-0.0418 0.0156,0.0102 0.0282,-0.0487 0.0351,-0.16406 8e-4,-0.0183 0.0107,-0.0333 0.0215,-0.0333 0.0107,0 0.0152,-0.0237 0.01,-0.0527 -0.006,-0.029 0.002,-0.0599 0.015,-0.0688 0.0136,-0.009 0.0177,-0.0391 0.009,-0.0671 -0.008,-0.028 -0.005,-0.051 0.009,-0.051 0.0252,0 0.0962,-0.15915 0.0861,-0.19298 -0.006,-0.0179 0.0152,-0.024 0.06,-0.0178 0.009,8.5e-4 0.0341,-0.0268 0.0565,-0.0623 0.0225,-0.0354 0.0824,-0.10283 0.13323,-0.14971 0.0531,-0.0489 0.10014,-0.12156 0.11053,-0.17062 0.01,-0.047 0.023,-0.0704 0.029,-0.0519 0.0159,0.0485 0.0569,0.0126 0.0569,-0.0499 0,-0.0292 0.0105,-0.0463 0.0233,-0.038 0.0128,0.009 0.0301,-0.008 0.0385,-0.0354 0.0217,-0.0727 0.20892,-0.1978 0.3464,-0.23163 0.0103,-0.003 0.0217,-0.007 0.0251,-0.01 0.0389,-0.0332 0.6151,-0.0608 0.6329,-0.0303 0.0187,0.032 0.25366,0.0323 0.33275,4.3e-4 0.0387,-0.0156 0.058,-0.0137 0.058,0.006 0,0.0172 0.0276,0.0235 0.0673,0.0154 0.0371,-0.008 0.0894,9e-5 0.11632,0.0168 0.0377,0.0235 0.0517,0.0228 0.0604,-0.003 0.006,-0.0184 0.0241,-0.0251 0.0398,-0.0149 0.0156,0.0102 0.0796,0.0283 0.14229,0.0401 0.14137,0.0268 0.15658,0.0312 0.19561,0.057 0.0172,0.0115 0.0314,0.0127 0.0314,0.003 0,-0.01 0.04,0.0143 0.0889,0.0538 l 0.0889,0.0718 0.10017,-0.10616 c 0.066,-0.0699 0.0892,-0.1108 0.0681,-0.1198 -0.0193,-0.009 -0.014,-0.0145 0.0134,-0.0157 0.025,-8.5e-4 0.0384,-0.0141 0.0299,-0.0287 -0.009,-0.0146 -0.004,-0.0266 0.01,-0.0266 0.0138,0 0.0208,-0.024 0.0155,-0.0532 -0.006,-0.0292 -10e-6,-0.0532 0.0118,-0.0532 0.0118,0 0.0185,-0.021 0.0147,-0.0466 -0.004,-0.0256 0.006,-0.0554 0.0211,-0.0661 0.0176,-0.0123 0.0182,-0.0197 0.002,-0.02 -0.0178,-2.8e-4 -0.0188,-0.0784 -0.003,-0.24553 0.0166,-0.17765 0.0151,-0.24788 -0.006,-0.25514 -0.0156,-0.005 -0.022,-0.021 -0.0142,-0.0343 0.008,-0.0134 -6e-4,-0.0246 -0.0187,-0.0247 -0.0239,-3e-4 -0.0225,-0.008 0.005,-0.0262 0.0238,-0.0163 0.0264,-0.0259 0.007,-0.0262 -0.0168,-2.3e-4 -0.0245,-0.0172 -0.0172,-0.0376 0.007,-0.0205 0.002,-0.0453 -0.0138,-0.0551 -0.015,-0.01 -0.0208,-0.029 -0.0127,-0.0426 0.008,-0.0136 0.002,-0.0248 -0.0136,-0.0248 -0.0155,0 -0.0211,-0.012 -0.0126,-0.0266 0.008,-0.0146 -0.005,-0.0275 -0.0299,-0.0287 -0.0265,-8.5e-4 -0.0323,-0.008 -0.014,-0.0156 0.033,-0.0141 -0.19092,-0.26639 -0.2262,-0.25473 -0.0103,0.003 -0.0188,-0.006 -0.0188,-0.0211 0,-0.0371 -0.10257,-0.0788 -0.29968,-0.12188 -0.0336,-0.008 -0.0694,-0.0188 -0.0795,-0.0254 -0.0102,-0.007 -0.0242,0.003 -0.0312,0.0213 -0.01,0.0259 -0.0132,0.0256 -0.0147,-0.002 -8e-4,-0.0192 -0.0133,-0.0275 -0.0271,-0.0184 -0.0138,0.009 -0.0251,0.004 -0.0251,-0.0102 0,-0.0147 -0.0226,-0.022 -0.0502,-0.0164 -0.0276,0.006 -0.0502,-2.4e-4 -0.0502,-0.0131 0,-0.0128 -0.0292,-0.0178 -0.0648,-0.0109 -0.048,0.009 -0.0598,0.003 -0.0454,-0.0217 0.0152,-0.0267 0.0105,-0.0265 -0.0214,8.5e-4 -0.0346,0.0297 -0.0488,0.0266 -0.0927,-0.02 -0.0846,-0.0896 -0.053,-0.16381 0.0737,-0.1729 0.0207,-0.002 0.0518,-0.0122 0.0691,-0.0238 0.0172,-0.0116 0.0314,-0.013 0.0314,-0.003 0,0.01 0.0169,0.003 0.0377,-0.015 0.0207,-0.0182 0.0377,-0.0252 0.0377,-0.0156 0,0.01 0.0254,0.003 0.0565,-0.0154 0.0962,-0.056 0.12311,-0.0595 0.43333,-0.0559 0.40763,0.005 0.48983,0.0116 0.48983,0.0415 0,0.0139 0.0159,0.0115 0.0352,-0.006 0.0247,-0.0218 0.0379,-0.0224 0.0444,-0.002 0.005,0.0159 0.0343,0.0309 0.0653,0.0334 0.0309,0.003 0.0561,0.0192 0.0561,0.0372 0,0.018 0.0229,0.0497 0.0508,0.0705 0.0365,0.0271 0.0546,0.0782 0.0643,0.18117 0.007,0.0789 0.0191,0.17939 0.0259,0.22331 0.0299,0.19241 0.0281,0.51392 -0.004,0.63883 -0.0186,0.0732 -0.0306,0.19551 -0.0268,0.27179 0.004,0.0763 -0.002,0.13248 -0.0141,0.12487 -0.0116,-0.008 -0.0212,0.0108 -0.0212,0.041 0,0.0302 0.0127,0.0548 0.0282,0.0548 0.0196,0 0.0187,0.0121 -0.003,0.0396 -0.0171,0.0218 -0.0239,0.0592 -0.0152,0.0832 0.009,0.024 0.006,0.0571 -0.006,0.0735 -0.0124,0.0164 -0.0228,0.0838 -0.0229,0.14968 -2.2e-4,0.0659 -0.003,0.12576 -0.006,0.13308 -0.008,0.0189 -0.0182,0.11874 -0.0323,0.32425 -0.006,0.0978 -0.018,0.18772 -0.025,0.1998 -0.007,0.0121 -0.009,0.0758 -0.003,0.14156 0.006,0.0658 0.0127,0.1875 0.0165,0.27048 0.004,0.083 0.0144,0.15885 0.0238,0.16862 0.009,0.01 0.0119,0.0467 0.006,0.082 -0.006,0.0354 -8e-4,0.0643 0.0108,0.0643 0.012,0 0.0173,0.0479 0.0118,0.10648 -0.006,0.0586 -3.5e-4,0.10647 0.0115,0.10647 0.0119,0 0.019,0.0509 0.016,0.11313 -0.004,0.0724 0.009,0.12987 0.0338,0.1597 0.0245,0.0288 0.0284,0.0466 0.0104,0.0466 -0.016,0 -0.029,0.0176 -0.029,0.0391 0,0.0227 0.0148,0.0331 0.0355,0.0246 0.0555,-0.0225 0.0756,0.0883 0.0294,0.16284 -0.0568,0.0919 -0.0508,0.20579 0.0131,0.24811 l 0.0529,0.035 -0.0529,0.0523 c -0.0523,0.0516 -0.0769,0.20211 -0.0278,0.16997 0.0328,-0.0215 0.0318,0.002 -0.009,0.21785 -0.0428,0.22529 -0.0379,0.67991 0.008,0.73853 0.018,0.0229 0.0243,0.0418 0.014,0.0418 -0.0103,0 -0.006,0.0161 0.009,0.0357 0.0154,0.0196 0.0205,0.0436 0.0115,0.0532 -0.009,0.01 0.003,0.0175 0.0268,0.0175 0.0238,0 0.0371,0.0108 0.0294,0.024 -0.008,0.0132 0.0262,0.0491 0.0753,0.0799 0.0492,0.0307 0.0829,0.067 0.075,0.0806 -0.008,0.0136 0.009,0.0324 0.0366,0.0418 0.0281,0.009 0.0451,0.0271 0.0381,0.0393 -0.016,0.0274 0.15877,0.13961 0.18779,0.12061 0.0115,-0.008 0.0268,8.5e-4 0.0338,0.0196 0.01,0.0258 0.0132,0.0253 0.0147,-0.002 0.002,-0.027 0.0109,-0.0258 0.0404,0.005 0.0211,0.0224 0.055,0.0339 0.0753,0.0257 0.0203,-0.008 0.037,-0.002 0.037,0.0144 0,0.0162 0.0108,0.0295 0.024,0.0295 0.0131,0 0.0507,0.0283 0.0833,0.0629 0.0592,0.0627 0.0593,0.0629 0.009,0.10647 -0.0279,0.024 -0.0412,0.0436 -0.0297,0.0436 0.0115,0 -0.006,0.0225 -0.0391,0.0501 -0.048,0.04 -0.11402,0.0522 -0.32974,0.0606 -0.1483,0.006 -0.27277,5.6e-4 -0.27659,-0.0116 -0.004,-0.0122 -0.0294,-0.0265 -0.0567,-0.0319 -0.0273,-0.005 -0.0498,-0.0119 -0.0498,-0.0145 0,-0.003 -0.0282,-0.009 -0.0628,-0.0122 -0.0346,-0.004 -0.0967,-0.0158 -0.13816,-0.0259 -0.0415,-0.0101 -0.0895,-0.0195 -0.10675,-0.0209 -0.0172,-0.002 -0.0314,-0.0132 -0.0314,-0.0262 0,-0.0131 -0.0113,-0.0163 -0.0251,-0.008 -0.0138,0.009 -0.0253,7.7e-4 -0.0255,-0.0184 -3.1e-4,-0.0282 -0.005,-0.0281 -0.0217,6.6e-4 -0.017,0.0284 -0.0244,0.0267 -0.0371,-0.009 -0.009,-0.0241 -0.0261,-0.0371 -0.0385,-0.029 -0.0124,0.008 -0.0294,-0.003 -0.0377,-0.0266 -0.008,-0.0228 -0.0252,-0.0348 -0.0377,-0.0266 -0.0124,0.009 -0.0294,-0.003 -0.0377,-0.0266 -0.008,-0.0228 -0.0264,-0.034 -0.0403,-0.0249 -0.0139,0.009 -0.0253,0.004 -0.0253,-0.0116 0,-0.0155 -0.0169,-0.0282 -0.0377,-0.0282 -0.0207,0 -0.0377,0.0127 -0.0377,0.0282 0,0.0155 -0.0114,0.0207 -0.0253,0.0116 -0.014,-0.009 -0.0449,0.0196 -0.0688,0.0637 -0.0239,0.0442 -0.0662,0.0866 -0.094,0.0943 -0.0277,0.008 -0.09,0.0408 -0.13839,0.0734 -0.0484,0.0326 -0.11618,0.0616 -0.15073,0.0643 -0.0346,0.003 -0.0628,0.008 -0.0628,0.0107 0,0.003 -0.0339,0.01 -0.0754,0.0148 -0.0954,0.0113 -0.14408,0.0227 -0.17584,0.041 -0.0363,0.021 -0.41577,0.01 -0.48984,-0.0143 -0.061,-0.0199 -0.0613,-0.0193 -0.0126,0.0213 0.0614,0.0512 0.0262,0.0521 -0.0753,0.002 z m -0.17009,-0.0545 c -0.008,-0.009 -0.03,-0.01 -0.0481,-0.002 -0.0201,0.009 -0.0141,0.0148 0.0152,0.0161 0.0265,8.5e-4 0.0413,-0.005 0.033,-0.014 z m 0.74156,-0.38601 c 0.038,-0.003 0.0691,-0.016 0.0691,-0.0271 0,-0.0111 0.0224,-0.0156 0.0497,-0.0101 0.0274,0.006 0.0564,-0.002 0.0646,-0.0153 0.008,-0.014 0.0237,-0.0196 0.0344,-0.0126 0.0107,0.007 0.044,-0.0113 0.0739,-0.0409 0.0299,-0.0295 0.0655,-0.0464 0.0792,-0.0374 0.0136,0.009 0.0256,-0.0114 0.0265,-0.0452 0.002,-0.0448 0.006,-0.0504 0.0189,-0.0205 0.0149,0.0359 0.0225,0.035 0.061,-0.007 0.0241,-0.0262 0.0362,-0.0476 0.0266,-0.0476 -0.01,0 0.005,-0.0176 0.0314,-0.0391 0.0375,-0.03 0.04,-0.0394 0.0111,-0.0407 -0.0335,-0.002 -0.0335,-0.004 0,-0.0251 0.0207,-0.0129 0.045,-0.0215 0.0539,-0.0191 0.0326,0.009 0.12195,-0.0986 0.12195,-0.14627 0,-0.027 0.0102,-0.0462 0.0227,-0.0425 0.0253,0.008 0.17825,-0.2037 0.17825,-0.24597 0,-0.0148 0.008,-0.0239 0.0188,-0.0202 0.0103,0.003 0.0218,-0.003 0.0254,-0.0131 0.004,-0.0109 0.0293,-0.0625 0.057,-0.11485 0.0278,-0.0523 0.0439,-0.10628 0.0358,-0.11997 -0.008,-0.0137 -0.005,-0.0249 0.006,-0.0249 0.0212,0 0.0325,-0.0541 0.0403,-0.19298 0.002,-0.0403 0.0108,-0.0732 0.0189,-0.0732 0.008,0 0.0128,-0.036 0.0104,-0.0799 -0.002,-0.0439 0.005,-0.0799 0.0161,-0.0799 0.0113,0 0.0166,-0.0362 0.0118,-0.0804 -0.005,-0.0442 8e-4,-0.0869 0.0131,-0.0947 0.0297,-0.0195 0.0279,-0.45524 -0.002,-0.51457 -0.0131,-0.0261 -0.0298,-0.0821 -0.0371,-0.12463 -0.007,-0.0425 -0.0326,-0.0922 -0.0562,-0.11058 -0.0237,-0.0184 -0.0338,-0.0333 -0.0224,-0.0333 0.0113,0 -0.0262,-0.0435 -0.0834,-0.0967 -0.0842,-0.0782 -0.0984,-0.1039 -0.0744,-0.13459 0.0164,-0.0208 0.0193,-0.0343 0.006,-0.0297 -0.0127,0.004 -0.0231,-0.003 -0.0231,-0.0184 0,-0.0146 0.0113,-0.0226 0.0251,-0.0178 0.0138,0.005 0.0157,-8.5e-4 0.004,-0.0133 -0.0115,-0.0122 -0.0313,-0.0237 -0.0439,-0.0255 -0.0127,-0.002 -0.035,-0.005 -0.0496,-0.007 -0.0146,-0.002 -0.0202,-0.0144 -0.0124,-0.0278 0.008,-0.0134 -0.003,-0.0434 -0.0254,-0.0666 -0.0297,-0.0314 -0.0314,-0.0421 -0.006,-0.0425 0.0202,-2.5e-4 0.0233,-0.008 0.008,-0.02 -0.0138,-0.0108 -0.0283,-0.0495 -0.0322,-0.0861 -0.004,-0.0366 -0.009,-0.0815 -0.0104,-0.0998 -0.002,-0.0183 -0.0122,-0.0333 -0.0229,-0.0333 -0.0107,0 -0.0151,-0.0243 -0.01,-0.054 0.006,-0.0297 3e-4,-0.0478 -0.0113,-0.0401 -0.018,0.0118 -0.0298,-0.0155 -0.0653,-0.15216 -0.003,-0.011 -0.006,-0.0326 -0.008,-0.0481 -0.002,-0.0155 -0.0164,-0.0195 -0.0326,-0.009 -0.0197,0.0128 -0.0241,0.005 -0.0136,-0.0242 0.009,-0.0239 0.005,-0.0505 -0.008,-0.0592 -0.0132,-0.009 -0.024,-6.5e-4 -0.024,0.0178 0,0.0267 -0.006,0.0268 -0.0312,4.6e-4 -0.0249,-0.0263 -0.0236,-0.0382 0.006,-0.0581 0.0308,-0.0207 0.0286,-0.0252 -0.0127,-0.0259 -0.0288,-4.7e-4 -0.039,-0.009 -0.0237,-0.0204 0.0173,-0.0127 0.0108,-0.0357 -0.0189,-0.0661 -0.0253,-0.0259 -0.0453,-0.0331 -0.0453,-0.0161 0,0.0168 -0.0256,0.002 -0.0569,-0.0333 -0.0313,-0.0351 -0.0793,-0.0679 -0.10677,-0.0729 -0.0274,-0.005 -0.0612,-0.0184 -0.075,-0.0297 -0.0138,-0.0112 -0.0505,-0.0181 -0.0817,-0.0152 -0.0311,0.003 -0.0567,-0.008 -0.0569,-0.0236 -2.2e-4,-0.0158 -0.0113,-0.0109 -0.0247,0.0111 -0.0134,0.0219 -0.0245,0.0267 -0.0247,0.0105 -2.4e-4,-0.0185 -0.0443,-0.0259 -0.1197,-0.0201 -0.0656,0.005 -0.22106,0.0144 -0.34541,0.0205 -0.1929,0.01 -0.32656,0.0269 -0.32656,0.0422 0,0.006 -0.0945,0.0292 -0.13187,0.0326 -0.0172,0.002 -0.0314,0.0189 -0.0314,0.0383 0,0.0195 -0.022,0.0355 -0.0488,0.0355 -0.05,0 -0.134,0.0996 -0.11357,0.13463 0.006,0.0107 -0.006,0.0263 -0.0261,0.0348 -0.0206,0.009 -0.0375,0.033 -0.0375,0.0547 0,0.0217 -0.0144,0.049 -0.0319,0.0608 -0.0344,0.023 -0.10526,0.16816 -0.0981,0.20096 0.002,0.011 -0.007,0.02 -0.0222,0.02 -0.0146,0 -0.0201,0.0111 -0.0121,0.0248 0.008,0.0136 0.003,0.0323 -0.0111,0.0415 -0.014,0.009 -0.0255,0.0326 -0.0255,0.0519 0,0.0194 -0.0424,0.0829 -0.0942,0.1413 -0.12466,0.14037 -0.16294,0.19298 -0.14041,0.19298 0.0102,0 0.006,0.0134 -0.01,0.0298 -0.0155,0.0164 -0.0226,0.0451 -0.0159,0.0638 0.006,0.0187 -3.2e-4,0.0422 -0.0157,0.0524 -0.0204,0.0134 -0.0201,0.0285 0.002,0.0559 0.0164,0.0209 0.0185,0.0376 0.005,0.0376 -0.0135,0 -0.0225,0.0419 -0.0201,0.0932 0.002,0.0513 -0.006,0.0932 -0.0193,0.0932 -0.0131,0 -0.01,0.0179 0.007,0.0399 0.0172,0.0219 0.0213,0.0399 0.009,0.0399 -0.0122,0 -0.0242,0.0569 -0.0268,0.12643 -0.002,0.0695 -0.0102,0.23106 -0.0168,0.35894 -0.007,0.14556 -0.002,0.23887 0.0139,0.24954 0.0169,0.011 0.0147,0.0245 -0.006,0.0383 -0.0254,0.0166 -0.0259,0.0297 -0.002,0.0598 0.0166,0.0213 0.0232,0.058 0.0145,0.0818 -0.009,0.0255 -0.003,0.0433 0.0152,0.0433 0.0237,0 0.0241,0.009 0.002,0.0376 -0.0215,0.0275 -0.0218,0.0425 -0.002,0.0559 0.0154,0.0101 0.0224,0.034 0.0155,0.053 -0.007,0.019 -0.005,0.0428 0.005,0.0528 0.009,0.01 0.0176,0.0261 0.0184,0.0359 0.005,0.0694 0.044,0.13278 0.0744,0.12041 0.0251,-0.0102 0.0324,0.002 0.0253,0.0413 -0.008,0.0453 0.002,0.0558 0.0575,0.0561 0.0451,2.7e-4 0.0568,0.008 0.0351,0.0224 -0.0258,0.0174 -0.0242,0.0293 0.008,0.0577 0.0224,0.0197 0.064,0.0845 0.0924,0.14405 0.0646,0.13525 0.19144,0.30788 0.22612,0.30788 0.0144,0 0.0709,0.0539 0.12562,0.11979 0.0547,0.0659 0.1155,0.11977 0.13506,0.11977 0.0196,0 0.0355,0.0127 0.0355,0.0282 0,0.0155 0.0113,0.0208 0.0251,0.0117 0.0138,-0.009 0.0251,-0.003 0.0251,0.0133 0,0.0164 0.0105,0.0229 0.0233,0.0145 0.0128,-0.009 0.031,-0.003 0.0403,0.0135 0.009,0.0159 0.0326,0.0224 0.052,0.0146 0.0193,-0.008 0.036,3.1e-4 0.0371,0.0182 0.002,0.0248 0.005,0.0247 0.0146,-6e-4 0.009,-0.0247 0.0224,-0.0227 0.0517,0.008 0.0371,0.0393 0.22614,0.0422 0.56597,0.009 z m 1.70188,-0.25004 c 0,-0.0219 -0.0184,-0.0399 -0.0407,-0.0399 -0.0334,0 -0.0351,0.007 -0.009,0.0399 0.0172,0.0219 0.0355,0.0399 0.0408,0.0399 0.006,0 0.009,-0.0179 0.009,-0.0399 z m -0.20605,-4.96779 c -0.008,-0.0533 -0.0115,-0.0495 -0.023,0.0244 -0.008,0.0529 -0.005,0.0778 0.009,0.063 0.0127,-0.0134 0.0188,-0.0527 0.0136,-0.0873 z"
         id="path44" />
      <path
         style="fill:#000000;fill-opacity:1;stroke-width:0.00806341"
         d="m 302.84928,513.08868 c -0.006,-0.006 -0.12703,-0.0152 -0.39374,-0.0292 -0.007,-4e-4 -0.0133,-0.0145 -0.0133,-0.0313 0,-0.0263 -0.004,-0.0269 -0.03,-0.005 -0.0262,0.0225 -0.0286,0.0218 -0.0188,-0.006 0.008,-0.024 0.002,-0.0299 -0.0239,-0.0245 -0.0251,0.005 -0.0336,-0.002 -0.0301,-0.0248 0.003,-0.0214 -0.006,-0.0302 -0.0261,-0.0264 -0.0188,0.003 -0.031,-0.006 -0.031,-0.0246 0,-0.0176 -0.008,-0.0247 -0.0201,-0.017 -0.0123,0.008 -0.0166,0.003 -0.0111,-0.013 0.005,-0.0144 0.018,-0.0241 0.029,-0.0214 0.011,0.003 0.02,-0.003 0.02,-0.0141 0,-0.0104 0.012,-0.0189 0.0266,-0.0189 0.0147,0 0.0266,-0.009 0.0266,-0.02 0,-0.011 0.008,-0.0147 0.0178,-0.008 0.01,0.007 0.0177,0.004 0.0177,-0.005 0,-0.009 0.0268,-0.03 0.0594,-0.0465 0.0468,-0.0236 0.0764,-0.0263 0.13888,-0.0121 0.0482,0.0109 0.11888,0.0114 0.17978,8.5e-4 0.0552,-0.009 0.10261,-0.01 0.10535,-0.002 0.002,0.009 0.045,0.0201 0.0938,0.0258 0.097,0.0115 0.14941,0.0204 0.23091,0.0392 0.0293,0.007 0.0793,0.0134 0.11102,0.0148 0.0318,0.002 0.0577,0.008 0.0577,0.0148 0,0.007 0.018,0.009 0.0399,0.003 0.0321,-0.008 0.0347,-0.005 0.0133,0.0109 -0.0172,0.0131 -0.019,0.0202 -0.005,0.0205 0.0123,1.6e-4 0.0171,0.013 0.0111,0.0296 -0.006,0.0175 -0.022,0.0247 -0.0389,0.0178 -0.0156,-0.006 -0.0225,-0.005 -0.0156,0.002 0.0188,0.02 -0.0216,0.0631 -0.0488,0.0521 -0.013,-0.005 -0.0286,-8.5e-4 -0.0348,0.01 -0.006,0.0106 -0.0229,0.0145 -0.0373,0.009 -0.0183,-0.008 -0.0261,0.003 -0.0261,0.0326 0,0.0409 -0.002,0.0414 -0.024,0.009 -0.0229,-0.0332 -0.0757,-0.0251 -0.056,0.009 0.005,0.009 0.002,0.0215 -0.009,0.028 -0.01,0.007 -0.0181,-0.002 -0.0181,-0.0175 0,-0.0421 -0.0267,-0.0362 -0.0591,0.013 -0.0234,0.0355 -0.028,0.0371 -0.0288,0.009 -8.1e-4,-0.0404 -0.0247,-0.0424 -0.0542,-0.005 -0.02,0.0254 -0.10741,0.0397 -0.12582,0.0205 z"
         id="path45" />
      <path
         style="fill:#000000;fill-opacity:1;stroke-width:0.00806341"
         d="m 303.19907,513.34603 c -0.038,-0.004 -0.0805,-0.0196 -0.0945,-0.0345 -0.0259,-0.0275 -0.0767,-0.0342 -0.21669,-0.0286 -0.0872,0.003 -0.11376,0.0145 -0.0985,0.0405 0.0139,0.0237 -0.004,0.022 -0.0508,-0.005 -0.0213,-0.0123 -0.0535,-0.0236 -0.0716,-0.0252 -0.018,-0.002 -0.0379,-0.0105 -0.0444,-0.02 -0.0232,-0.0339 -0.0739,-0.0234 -0.0739,0.0154 0,0.0356 -0.002,0.036 -0.0431,0.008 -0.0323,-0.0224 -0.0453,-0.0241 -0.0519,-0.007 -0.006,0.0172 -0.009,0.0167 -0.0102,-0.002 -7.7e-4,-0.0135 -0.009,-0.0194 -0.0192,-0.013 -0.01,0.007 -0.0177,0.003 -0.0177,-0.008 0,-0.011 -0.016,-0.0199 -0.0355,-0.0199 -0.0196,0 -0.0355,-0.009 -0.0355,-0.02 0,-0.011 -0.008,-0.0147 -0.0177,-0.009 -0.01,0.007 -0.0177,0.003 -0.0177,-0.009 0,-0.0116 -0.008,-0.0158 -0.0178,-0.009 -0.01,0.007 -0.0179,5.4e-4 -0.018,-0.013 -2e-4,-0.0179 -0.005,-0.0169 -0.0175,0.003 -0.0125,0.0205 -0.0173,0.0215 -0.0175,0.003 -1.5e-4,-0.0135 -0.008,-0.0198 -0.0168,-0.0138 -0.009,0.006 -0.0219,-0.008 -0.0286,-0.0296 -0.009,-0.0317 -0.0155,-0.0348 -0.0277,-0.0144 -0.0129,0.0216 -0.0156,0.0212 -0.0161,-0.003 -4.8e-4,-0.0251 -0.002,-0.0251 -0.0196,0 -0.0153,0.0227 -0.0173,0.0199 -0.0103,-0.0141 0.005,-0.0233 0.002,-0.0382 -0.006,-0.0331 -0.008,0.005 -0.0239,-0.003 -0.0359,-0.0186 -0.012,-0.0153 -0.0269,-0.0254 -0.0331,-0.0224 -0.006,0.003 -0.0328,-0.0183 -0.059,-0.0473 -0.0262,-0.029 -0.0432,-0.0527 -0.0378,-0.0527 0.006,0 0.002,-0.0109 -0.009,-0.0241 -0.0104,-0.0133 -0.0172,-0.0368 -0.0151,-0.0523 0.004,-0.0299 0.0825,-0.12156 0.0835,-0.0977 3.2e-4,0.008 0.0153,-0.004 0.0333,-0.0275 0.018,-0.0229 0.0375,-0.0365 0.0434,-0.0303 0.006,0.006 0.016,-0.003 0.0225,-0.0212 0.009,-0.0247 0.0151,-0.0268 0.0258,-0.009 0.01,0.0167 0.018,0.008 0.0266,-0.0285 0.009,-0.0384 0.0165,-0.0458 0.0276,-0.0273 0.0113,0.0189 0.0152,0.0157 0.0156,-0.0123 4e-4,-0.0279 0.005,-0.0311 0.0156,-0.0125 0.0188,0.0315 0.0321,0.0306 0.0655,-0.005 0.0146,-0.0155 0.0383,-0.0233 0.0527,-0.0175 0.0144,0.006 0.0262,7.5e-4 0.0262,-0.0113 0,-0.0121 0.007,-0.0171 0.0165,-0.0111 0.009,0.006 0.0205,0.004 0.0254,-0.004 0.0103,-0.0178 0.54892,-0.004 0.59745,0.0153 0.005,0.002 0.0265,0.002 0.0479,2.3e-4 0.0214,-0.002 0.0554,0.006 0.0755,0.0174 0.0223,0.0127 0.0365,0.0135 0.0365,0.003 0,-0.0218 0.0533,-0.0132 0.10732,0.0175 0.0262,0.0148 0.0444,0.0157 0.0566,0.003 0.0212,-0.0224 0.0991,0.009 0.13324,0.053 0.0173,0.0226 0.0249,0.0235 0.0369,0.004 0.011,-0.0177 0.0204,-0.0114 0.0354,0.0236 0.0112,0.0262 0.0286,0.0476 0.0386,0.0476 0.01,0 0.0181,0.0116 0.0181,0.0259 0,0.0143 0.0179,0.0385 0.0397,0.0539 0.0332,0.0234 0.036,0.0327 0.017,0.0569 -0.0184,0.0235 -0.0184,0.0308 2.4e-4,0.0387 0.0132,0.006 0.008,0.0105 -0.0126,0.0116 -0.0296,0.002 -0.031,0.005 -0.009,0.0201 0.0221,0.0151 0.0206,0.0184 -0.009,0.0188 -0.0294,4.9e-4 -0.0309,0.003 -0.009,0.0185 0.0222,0.015 0.0229,0.0244 0.004,0.0569 -0.0125,0.0214 -0.018,0.0471 -0.0123,0.057 0.006,0.01 0.002,0.0181 -0.008,0.0181 -0.0104,0 -0.0189,0.01 -0.0189,0.0216 0,0.0283 -0.15477,0.20341 -0.16768,0.18972 -0.006,-0.006 -0.01,-6.5e-4 -0.01,0.0114 0,0.0218 -0.0425,0.0236 -0.18456,0.009 z m -0.21922,-0.27116 c 0.029,-0.0164 0.0396,-0.0162 0.0451,8.5e-4 0.005,0.0161 0.0163,0.0138 0.0391,-0.008 0.0211,-0.0202 0.0359,-0.0238 0.0436,-0.0105 0.0172,0.0295 0.0452,0.0244 0.0452,-0.009 0,-0.0331 0.0281,-0.0375 0.0458,-0.007 0.009,0.0146 0.0173,0.0119 0.0281,-0.009 0.009,-0.0165 0.0416,-0.0351 0.073,-0.0414 0.0783,-0.0157 0.12318,-0.0545 0.12909,-0.11155 0.002,-0.0263 0.002,-0.0479 -0.002,-0.0479 -0.004,0 -0.12903,-0.022 -0.2782,-0.0489 -0.14916,-0.0269 -0.35913,-0.0511 -0.46659,-0.0538 l -0.19538,-0.005 -0.12092,0.0741 c -0.1234,0.0756 -0.13763,0.10391 -0.0689,0.13681 0.0213,0.0102 0.0388,0.0292 0.0388,0.0423 0,0.0131 0.012,0.0238 0.0266,0.0238 0.0147,0 0.0266,0.009 0.0266,0.0208 0,0.0115 0.0119,0.016 0.0266,0.01 0.016,-0.007 0.0266,-1.1e-4 0.0266,0.0161 0,0.021 0.0363,0.0283 0.16431,0.0331 0.0904,0.003 0.20279,0.008 0.24983,0.0101 0.0471,0.003 0.10262,-0.006 0.12349,-0.0176 z"
         id="path46" />
    </g>
    <path
       style="fill:#000000;fill-opacity:1;stroke-width:0.883939"
       d="m 634.07857,411.70703 c -5.99084,-9.14318 -5.62538,-72.48209 0.66967,-116.05845 2.61358,-18.09209 -6.5027,4.02154 -16.11298,39.08575 -4.69292,17.12266 -9.29852,43.61395 -9.29852,53.48491 0,7.35287 -0.6088,8.82809 -3.41981,8.28674 -4.33432,-0.83471 -6.14971,-7.37584 -6.40238,-23.06871 -0.22259,-13.82407 -2.40757,-17.19071 -6.01643,-9.27014 -1.31672,2.88988 -5.94714,8.94996 -10.28982,13.46683 -4.34268,4.51687 -10.70652,11.59491 -14.14188,15.72898 -8.5624,10.30391 -14.04359,10.02295 -19.55141,-1.0022 -2.34062,-4.68527 -5.23584,-13.70506 -6.43383,-20.04397 -1.19799,-6.3389 -2.90676,-11.52528 -3.79728,-11.52528 -0.89051,0 -2.75538,2.74318 -4.14415,6.09597 -1.38877,3.35278 -5.49585,8.54477 -9.12684,11.53773 -3.63099,2.99299 -9.37466,9.26958 -12.76369,13.948 -10.67583,14.73755 -21.61519,9.45208 -26.20599,-12.66171 -1.24483,-5.99632 -2.98401,-10.9024 -3.86484,-10.9024 -0.88083,0 -2.68602,5.51251 -4.01155,12.25001 -2.93293,14.90783 -5.65584,21.21424 -9.85542,22.82576 -9.14189,3.50807 -11.76788,-16.94857 -8.10308,-63.12354 3.3355,-42.02592 3.29504,-39.98708 0.80521,-40.57513 -3.73875,-0.883 -10.95651,22.02509 -16.00151,50.78641 -2.76383,15.75648 -5.57914,30.3936 -6.25623,32.52694 -2.54533,8.01961 -4.74027,-1.68155 -4.77093,-21.08644 -0.0169,-10.68352 -0.90623,-19.9657 -1.97633,-20.62705 -2.44866,-1.51336 -3.21118,1.81592 -7.95596,34.7371 -2.12091,14.7157 -4.3086,27.20823 -4.86154,27.76118 -0.55293,0.55293 -1.96732,0.41078 -3.14309,-0.31587 -1.40925,-0.87097 -2.13775,-16.34839 -2.13775,-45.41794 0,-29.3016 -0.68211,-43.67517 -2.03304,-42.84026 -1.11817,0.69108 -3.88703,4.89061 -6.15302,9.33231 -2.26599,4.44173 -4.62851,7.56731 -5.25004,6.94578 -1.78595,-1.78596 9.52807,-23.47566 12.92573,-24.77946 5.6618,-2.17264 9.48875,2.6446 11.56858,14.56219 l 2.03842,11.68028 3.77809,-8.3783 c 4.09743,-9.08647 6.05721,-10.01397 11.24301,-5.32087 3.10659,2.81143 3.73023,2.09255 7.75092,-8.93456 2.53748,-6.95929 6.63689,-13.77318 9.76813,-16.2362 l 5.39564,-4.24421 3.76371,4.648 c 3.21155,3.96608 3.59256,6.85521 2.59708,19.69306 -2.76052,35.59984 -3.7164,77.67388 -1.7917,78.86341 2.07815,1.28435 7.25487,-20.58248 14.64633,-61.86719 6.01469,-33.59484 11.94448,-47.70612 22.39775,-53.30054 3.60393,-1.92877 3.98853,-1.75192 2.81888,1.29615 -0.77127,2.00988 -0.12702,4.91514 1.49627,6.74747 4.40219,4.96906 9.27231,38.50515 9.27231,63.84991 0,20.54092 0.34822,22.77727 3.45347,22.17926 7.44217,-1.43323 11.73034,-13.39024 21.60103,-60.23166 2.20398,-10.45902 5.40788,-18.61171 9.84629,-25.05496 11.43448,-16.5995 16.43371,-13.8514 21.44542,11.78864 2.38476,12.20053 3.68574,27.98217 3.72515,45.18815 0.0337,14.69065 0.91711,26.96937 1.9881,27.63126 2.64608,1.63537 9.59582,-12.56637 12.97468,-26.51367 3.2604,-13.45832 6.07347,-58.62571 3.65126,-58.62571 -0.9097,0 -3.2893,2.76839 -5.28803,6.15196 -1.99873,3.38358 -4.10675,5.67928 -4.68448,5.10155 -1.37416,-1.37415 9.122,-19.27109 11.30207,-19.27109 5.39828,0 7.01025,7.69141 8.1243,38.76417 1.09229,30.46702 1.31093,31.85593 3.67925,23.37214 15.12785,-54.19117 22.43361,-72.1583 29.34089,-72.1583 5.03462,0 5.39188,7.1602 2.12073,42.50168 -3.75083,40.52378 -3.5113,95.40347 0.38675,88.61257 4.15158,-7.2326 10.45373,-42.99885 13.59789,-77.17153 4.80756,-52.25125 3.66622,-150.19873 -1.81404,-155.679 -0.53319,-0.53318 -3.26639,-0.39292 -6.07377,0.31169 -5.0051,1.2562 -5.105,1.64085 -5.13811,19.78359 l -0.0338,18.50249 -4.37099,-6.82877 c -5.32446,-8.31842 -7.20096,-27.52174 -3.55053,-36.33469 1.3835,-3.34005 1.89979,-6.68847 1.14732,-7.44094 -2.64046,-2.64046 -8.2868,2.88257 -18.71434,18.30561 -11.19063,16.55171 -13.18877,15.61933 -6.73385,-3.1422 5.04539,-14.66466 7.83074,-18.82464 16.75584,-25.02518 4.13407,-2.87207 7.51649,-5.86727 7.51649,-6.65602 0,-0.78874 -7.68386,-1.97634 -17.07522,-2.63909 -9.39138,-0.66276 -18.01895,-1.78826 -19.17236,-2.50111 -4.90003,-3.02839 14.78275,-16.72837 24.67952,-17.1779 2.50397,-0.11374 7.4841,0.45851 11.06696,1.27166 11.29951,2.56448 6.70461,-4.74437 -8.90546,-14.16543 l -7.2957,-4.403137 4.75842,-2.546622 c 12.40491,-6.638911 23.96733,-0.584041 28.91348,15.141069 1.89608,6.02815 3.69579,10.96027 3.99934,10.96027 0.30356,0 4.72456,-4.17264 9.82445,-9.27254 8.24268,-8.24267 9.98266,-9.13051 15.66629,-7.99378 3.51657,0.70331 8.07828,2.80323 10.13716,4.66649 3.58141,3.24113 3.23297,3.52746 -8.05227,6.61662 -12.97638,3.5521 -24.49185,10.6703 -24.49185,15.13948 0,3.41518 1.89181,3.57576 9.23496,0.78391 3.01792,-1.14742 6.91006,-1.48242 8.64918,-0.74445 1.73911,0.73797 5.32472,1.48688 7.968,1.66426 5.44248,0.3652 19.75459,15.08036 24.8004,25.49881 1.77087,3.65645 2.96864,6.89922 2.6617,7.20616 -0.30693,0.30694 -9.25654,-3.50675 -19.88801,-8.47487 -10.63148,-4.96811 -20.92316,-9.03308 -22.87039,-9.03327 -3.31335,-3.2e-4 -3.54045,4.27461 -3.54045,66.64621 0,67.13535 -1.69808,95.53973 -9.03255,151.08933 -3.71515,28.13777 -7.19579,40.41416 -13.40292,47.27296 -4.48326,4.95395 -7.9498,4.48222 -11.95241,-1.62652 z m -63.83349,-28.32829 c 5.50052,-11.5428 5.50834,-11.62276 4.46766,-45.63782 -1.0819,-35.36235 -3.96914,-53.11652 -8.63797,-53.11652 -4.19415,0 -6.53851,6.14339 -9.6783,25.362 -4.40825,26.98277 -5.55004,48.36175 -3.39066,63.48707 1.93068,13.52349 6.83784,24.49131 10.0653,22.49663 0.91509,-0.56556 4.14337,-6.23167 7.17397,-12.59136 z m -58.98056,4.97321 c 3.82104,-6.08128 4.03671,-8.91249 3.24452,-42.59344 -0.83754,-35.60858 -3.60409,-52.85457 -8.75419,-54.57126 -8.58172,-2.86058 -14.33201,82.07963 -6.6457,98.1669 3.471,7.26474 7.1517,6.96125 12.15537,-1.0022 z"
       id="path68"
       clip-path="url(#clipPath69)"
       transform="matrix(0.26458333,0,0,0.26458333,-33.997192,54.142101)" />
  </g>
</svg>
